<svg width="640" height="320" viewBox="0 0 640 320" fill="none" xmlns="http://www.w3.org/2000/svg">
<g clip-path="url(#clip0_606_27770)">
<rect width="640" height="320" rx="24" fill="#00BFFF"/>
<path d="M470.985 409.971C504.615 443.602 536.699 411.603 570.33 445.233L273.036 700.134L-400 27.0974L-102.707 -227.803C-69.0758 -194.173 -101.076 -162.089 -67.4447 -128.458C-33.814 -94.8271 -1.73018 -126.827 31.9006 -93.196C65.5314 -59.5653 33.5318 -27.4814 67.1626 6.14942C100.793 39.7802 132.877 7.78053 166.508 41.4113C200.139 75.0422 168.139 107.126 201.77 140.757C235.401 174.388 267.485 142.388 301.115 176.019C334.746 209.649 302.747 241.733 336.377 275.364C370.008 308.995 402.092 276.995 435.723 310.626C469.354 344.257 437.354 376.341 470.985 409.971Z" fill="#9ADEF4"/>
<g filter="url(#filter0_d_606_27770)">
<rect x="52" y="29" width="536" height="262" rx="24" fill="#081B4B"/>
<path d="M153 220L221.321 216.581L285.549 214.872L351.981 214.188L417.154 213.846L484.845 211.111L556 206.666" stroke="#0069FF" stroke-width="2" stroke-linejoin="round"/>
<path opacity="0.35" d="M153 217.334L221.231 203.649L285.978 195.458L352.111 184.836L417.882 175.608L484.845 166.917L556 154.667" stroke="#FF9950" stroke-width="2" stroke-linejoin="round"/>
<path opacity="0.35" d="M153 214L221.231 189.649L285.978 170.791L352.111 149.502L417.882 130.941L484.845 112.25L556 96.6665" stroke="#FF720E" stroke-width="2" stroke-linejoin="round"/>
<path opacity="0.35" d="M153 210.667L221.231 180.982L285.978 151.458L352.111 124.836L417.882 100.942L484.845 76.9167L556 52" stroke="#FF3A2E" stroke-width="2" stroke-linejoin="round"/>
<path d="M153 221L152.5 221C152.5 221.133 152.553 221.26 152.646 221.354C152.74 221.447 152.867 221.5 153 221.5L153 221ZM152.5 53L152.5 221L153.5 221L153.5 53L152.5 53ZM153 221.5L555 221.5L555 220.5L153 220.5L153 221.5Z" fill="#4D5B7C"/>
<path d="M156.927 243.14C156.362 243.14 155.879 243.005 155.478 242.734C155.081 242.459 154.757 242.081 154.505 241.6C154.258 241.115 154.076 240.552 153.959 239.913C153.847 239.274 153.791 238.59 153.791 237.862C153.791 237.134 153.847 236.45 153.959 235.811C154.076 235.167 154.258 234.602 154.505 234.117C154.757 233.627 155.081 233.244 155.478 232.969C155.879 232.689 156.362 232.549 156.927 232.549C157.492 232.549 157.972 232.689 158.369 232.969C158.77 233.244 159.095 233.627 159.342 234.117C159.589 234.602 159.771 235.167 159.888 235.811C160.005 236.45 160.063 237.134 160.063 237.862C160.063 238.59 160.005 239.274 159.888 239.913C159.771 240.552 159.589 241.115 159.342 241.6C159.095 242.081 158.77 242.459 158.369 242.734C157.972 243.005 157.492 243.14 156.927 243.14ZM156.927 242.09C157.366 242.09 157.725 241.929 158.005 241.607C158.29 241.285 158.502 240.809 158.642 240.179C158.782 239.549 158.852 238.777 158.852 237.862C158.852 236.943 158.782 236.168 158.642 235.538C158.502 234.908 158.29 234.432 158.005 234.11C157.725 233.783 157.366 233.62 156.927 233.62C156.493 233.62 156.131 233.783 155.842 234.11C155.557 234.432 155.345 234.908 155.205 235.538C155.065 236.168 154.995 236.943 154.995 237.862C154.995 238.781 155.065 239.556 155.205 240.186C155.345 240.811 155.557 241.285 155.842 241.607C156.131 241.929 156.493 242.09 156.927 242.09Z" fill="white"/>
<path d="M217.215 243V241.971C217.252 241.761 217.362 241.521 217.544 241.25C217.726 240.975 217.95 240.688 218.216 240.389C218.482 240.09 218.762 239.796 219.056 239.507C219.355 239.213 219.635 238.942 219.896 238.695C220.223 238.387 220.542 238.067 220.855 237.736C221.172 237.4 221.436 237.045 221.646 236.672C221.856 236.299 221.961 235.907 221.961 235.496C221.961 234.885 221.819 234.418 221.534 234.096C221.249 233.774 220.822 233.613 220.253 233.613C219.796 233.613 219.429 233.709 219.154 233.9C218.879 234.091 218.68 234.36 218.559 234.705C218.438 235.05 218.377 235.454 218.377 235.916H217.18C217.18 235.249 217.292 234.663 217.516 234.159C217.74 233.65 218.081 233.256 218.538 232.976C218.995 232.691 219.572 232.549 220.267 232.549C220.906 232.549 221.441 232.675 221.87 232.927C222.299 233.174 222.621 233.52 222.836 233.963C223.055 234.406 223.165 234.92 223.165 235.503C223.165 235.886 223.093 236.257 222.948 236.616C222.808 236.971 222.624 237.309 222.395 237.631C222.166 237.948 221.919 238.245 221.653 238.52C221.392 238.791 221.142 239.036 220.904 239.255C220.521 239.605 220.16 239.946 219.819 240.277C219.483 240.608 219.201 240.914 218.972 241.194C218.748 241.474 218.613 241.714 218.566 241.915H223.235V243H217.215Z" fill="white"/>
<path d="M284.252 243V240.676H280.108V239.717L283.79 232.64H285.421V239.626H286.814V240.676H285.421V243H284.252ZM281.144 240.27L280.752 239.626H284.252V233.466L284.553 233.536L281.144 240.27Z" fill="white"/>
<path d="M346.976 243.14C346.299 243.14 345.739 242.949 345.296 242.566C344.853 242.179 344.521 241.642 344.302 240.956C344.087 240.265 343.98 239.463 343.98 238.548C343.98 237.442 344.059 236.506 344.218 235.741C344.377 234.976 344.596 234.36 344.876 233.893C345.161 233.422 345.49 233.081 345.863 232.871C346.241 232.656 346.647 232.549 347.081 232.549C347.594 232.549 348.014 232.64 348.341 232.822C348.672 232.999 348.929 233.226 349.111 233.501C349.293 233.776 349.419 234.061 349.489 234.355C349.564 234.649 349.601 234.91 349.601 235.139C349.601 235.144 349.601 235.148 349.601 235.153C349.601 235.153 349.601 235.158 349.601 235.167H348.481C348.481 235.158 348.481 235.153 348.481 235.153C348.481 235.148 348.481 235.144 348.481 235.139C348.481 234.971 348.46 234.798 348.418 234.621C348.381 234.439 348.311 234.271 348.208 234.117C348.105 233.963 347.963 233.839 347.781 233.746C347.599 233.653 347.363 233.606 347.074 233.606C346.701 233.606 346.365 233.762 346.066 234.075C345.772 234.383 345.539 234.913 345.366 235.664C345.198 236.415 345.114 237.456 345.114 238.786H344.54C344.54 238.291 344.661 237.862 344.904 237.498C345.151 237.129 345.478 236.845 345.884 236.644C346.29 236.439 346.729 236.336 347.2 236.336C347.788 236.336 348.29 236.481 348.705 236.77C349.12 237.055 349.435 237.449 349.65 237.953C349.869 238.452 349.979 239.026 349.979 239.675C349.979 240.352 349.865 240.951 349.636 241.474C349.407 241.997 349.069 242.405 348.621 242.699C348.178 242.993 347.629 243.14 346.976 243.14ZM346.983 242.09C347.38 242.09 347.709 241.997 347.97 241.81C348.236 241.623 348.437 241.355 348.572 241.005C348.707 240.655 348.775 240.237 348.775 239.752C348.775 239.295 348.71 238.889 348.579 238.534C348.453 238.175 348.264 237.895 348.012 237.694C347.765 237.489 347.459 237.386 347.095 237.386C346.726 237.386 346.395 237.475 346.101 237.652C345.812 237.829 345.583 238.079 345.415 238.401C345.252 238.723 345.17 239.103 345.17 239.542C345.17 240.009 345.242 240.436 345.387 240.823C345.536 241.21 345.746 241.518 346.017 241.747C346.292 241.976 346.614 242.09 346.983 242.09Z" fill="white"/>
<path d="M411.568 243.14C410.896 243.14 410.317 243.014 409.832 242.762C409.347 242.505 408.973 242.151 408.712 241.698C408.451 241.241 408.32 240.713 408.32 240.116C408.32 239.579 408.409 239.134 408.586 238.779C408.763 238.424 408.99 238.147 409.265 237.946C409.54 237.745 409.823 237.608 410.112 237.533C409.865 237.477 409.622 237.356 409.384 237.169C409.146 236.982 408.95 236.726 408.796 236.399C408.642 236.068 408.565 235.664 408.565 235.188C408.565 234.647 408.698 234.18 408.964 233.788C409.235 233.391 409.596 233.086 410.049 232.871C410.502 232.656 411.008 232.549 411.568 232.549C412.128 232.549 412.634 232.656 413.087 232.871C413.544 233.086 413.906 233.391 414.172 233.788C414.438 234.18 414.571 234.647 414.571 235.188C414.571 235.664 414.494 236.068 414.34 236.399C414.186 236.726 413.99 236.982 413.752 237.169C413.514 237.356 413.271 237.477 413.024 237.533C413.318 237.608 413.6 237.745 413.871 237.946C414.146 238.147 414.373 238.424 414.55 238.779C414.727 239.134 414.816 239.579 414.816 240.116C414.816 240.713 414.685 241.241 414.424 241.698C414.163 242.151 413.789 242.505 413.304 242.762C412.819 243.014 412.24 243.14 411.568 243.14ZM411.568 242.09C411.941 242.09 412.28 242.02 412.583 241.88C412.891 241.74 413.136 241.525 413.318 241.236C413.5 240.947 413.591 240.578 413.591 240.13C413.591 239.719 413.507 239.36 413.339 239.052C413.171 238.739 412.935 238.497 412.632 238.324C412.329 238.151 411.974 238.065 411.568 238.065C411.162 238.065 410.807 238.151 410.504 238.324C410.201 238.497 409.965 238.739 409.797 239.052C409.629 239.36 409.545 239.719 409.545 240.13C409.545 240.578 409.636 240.947 409.818 241.236C410 241.525 410.243 241.74 410.546 241.88C410.854 242.02 411.195 242.09 411.568 242.09ZM411.568 237.043C412.114 237.043 412.557 236.882 412.898 236.56C413.239 236.238 413.409 235.809 413.409 235.272C413.409 234.871 413.323 234.549 413.15 234.306C412.977 234.063 412.751 233.888 412.471 233.781C412.191 233.669 411.89 233.613 411.568 233.613C411.246 233.613 410.945 233.669 410.665 233.781C410.385 233.888 410.159 234.063 409.986 234.306C409.813 234.549 409.727 234.871 409.727 235.272C409.727 235.809 409.895 236.238 410.231 236.56C410.572 236.882 411.017 237.043 411.568 237.043Z" fill="white"/>
<path d="M475.706 232.64V243H474.516V233.935C474.479 233.986 474.362 234.054 474.166 234.138C473.975 234.222 473.737 234.304 473.452 234.383C473.172 234.458 472.873 234.511 472.556 234.544V233.466C472.869 233.415 473.163 233.342 473.438 233.249C473.718 233.156 473.956 233.055 474.152 232.948C474.348 232.836 474.479 232.733 474.544 232.64H475.706ZM481.364 243.14C480.799 243.14 480.316 243.005 479.915 242.734C479.518 242.459 479.194 242.081 478.942 241.6C478.694 241.115 478.512 240.552 478.396 239.913C478.284 239.274 478.228 238.59 478.228 237.862C478.228 237.134 478.284 236.45 478.396 235.811C478.512 235.167 478.694 234.602 478.942 234.117C479.194 233.627 479.518 233.244 479.915 232.969C480.316 232.689 480.799 232.549 481.364 232.549C481.928 232.549 482.409 232.689 482.806 232.969C483.207 233.244 483.531 233.627 483.779 234.117C484.026 234.602 484.208 235.167 484.325 235.811C484.441 236.45 484.5 237.134 484.5 237.862C484.5 238.59 484.441 239.274 484.325 239.913C484.208 240.552 484.026 241.115 483.779 241.6C483.531 242.081 483.207 242.459 482.806 242.734C482.409 243.005 481.928 243.14 481.364 243.14ZM481.364 242.09C481.802 242.09 482.162 241.929 482.442 241.607C482.726 241.285 482.939 240.809 483.079 240.179C483.219 239.549 483.289 238.777 483.289 237.862C483.289 236.943 483.219 236.168 483.079 235.538C482.939 234.908 482.726 234.432 482.442 234.11C482.162 233.783 481.802 233.62 481.364 233.62C480.93 233.62 480.568 233.783 480.279 234.11C479.994 234.432 479.782 234.908 479.642 235.538C479.502 236.168 479.432 236.943 479.432 237.862C479.432 238.781 479.502 239.556 479.642 240.186C479.782 240.811 479.994 241.285 480.279 241.607C480.568 241.929 480.93 242.09 481.364 242.09Z" fill="white"/>
<path d="M545.039 232.64V243H543.849V233.935C543.812 233.986 543.695 234.054 543.499 234.138C543.308 234.222 543.07 234.304 542.785 234.383C542.505 234.458 542.206 234.511 541.889 234.544V233.466C542.202 233.415 542.496 233.342 542.771 233.249C543.051 233.156 543.289 233.055 543.485 232.948C543.681 232.836 543.812 232.733 543.877 232.64H545.039ZM547.652 243V241.971C547.689 241.761 547.799 241.521 547.981 241.25C548.163 240.975 548.387 240.688 548.653 240.389C548.919 240.09 549.199 239.796 549.493 239.507C549.791 239.213 550.071 238.942 550.333 238.695C550.659 238.387 550.979 238.067 551.292 237.736C551.609 237.4 551.873 237.045 552.083 236.672C552.293 236.299 552.398 235.907 552.398 235.496C552.398 234.885 552.255 234.418 551.971 234.096C551.686 233.774 551.259 233.613 550.69 233.613C550.232 233.613 549.866 233.709 549.591 233.9C549.315 234.091 549.117 234.36 548.996 234.705C548.874 235.05 548.814 235.454 548.814 235.916H547.617C547.617 235.249 547.729 234.663 547.953 234.159C548.177 233.65 548.517 233.256 548.975 232.976C549.432 232.691 550.008 232.549 550.704 232.549C551.343 232.549 551.877 232.675 552.307 232.927C552.736 233.174 553.058 233.52 553.273 233.963C553.492 234.406 553.602 234.92 553.602 235.503C553.602 235.886 553.529 236.257 553.385 236.616C553.245 236.971 553.06 237.309 552.832 237.631C552.603 237.948 552.356 238.245 552.09 238.52C551.828 238.791 551.579 239.036 551.341 239.255C550.958 239.605 550.596 239.946 550.256 240.277C549.92 240.608 549.637 240.914 549.409 241.194C549.185 241.474 549.049 241.714 549.003 241.915H553.672V243H547.652Z" fill="white"/>
<path d="M79.5981 56.675H80.4311V67H79.5981V56.675ZM80.0391 65.607C79.5911 65.607 79.1758 65.5603 78.7931 65.467C78.4151 65.369 78.0838 65.229 77.7991 65.047C77.5191 64.8603 77.2998 64.6317 77.1411 64.361C76.9871 64.0903 76.9101 63.78 76.9101 63.43C76.9101 63.3927 76.9101 63.3553 76.9101 63.318C76.9101 63.276 76.9101 63.241 76.9101 63.213H78.1071C78.1071 63.241 78.1071 63.2643 78.1071 63.283C78.1071 63.3017 78.1071 63.3297 78.1071 63.367C78.1071 63.745 78.2821 64.0343 78.6321 64.235C78.9821 64.431 79.4605 64.529 80.0671 64.529C80.4405 64.529 80.7741 64.4917 81.0681 64.417C81.3621 64.3423 81.5931 64.228 81.7611 64.074C81.9338 63.92 82.0201 63.7263 82.0201 63.493C82.0201 63.1057 81.8381 62.8303 81.4741 62.667C81.1148 62.499 80.5758 62.3543 79.8571 62.233C79.4791 62.1677 79.1198 62.0837 78.7791 61.981C78.4385 61.8737 78.1351 61.736 77.8691 61.568C77.6078 61.4 77.4001 61.1923 77.2461 60.945C77.0968 60.693 77.0221 60.392 77.0221 60.042C77.0221 59.5893 77.1551 59.2067 77.4211 58.894C77.6918 58.5767 78.0558 58.3363 78.5131 58.173C78.9705 58.005 79.4791 57.921 80.0391 57.921C80.5805 57.921 81.0798 58.0073 81.5371 58.18C81.9945 58.3527 82.3608 58.6047 82.6361 58.936C82.9161 59.2627 83.0561 59.6663 83.0561 60.147C83.0561 60.1657 83.0561 60.189 83.0561 60.217C83.0561 60.2403 83.0561 60.2637 83.0561 60.287H81.8661C81.8661 60.2637 81.8661 60.245 81.8661 60.231C81.8661 60.217 81.8661 60.2007 81.8661 60.182C81.8661 59.9113 81.7798 59.6897 81.6071 59.517C81.4345 59.3397 81.2105 59.209 80.9351 59.125C80.6598 59.0363 80.3658 58.992 80.0531 58.992C79.7591 58.992 79.4698 59.0247 79.1851 59.09C78.9005 59.1507 78.6648 59.2533 78.4781 59.398C78.2915 59.5427 78.1981 59.741 78.1981 59.993C78.1981 60.245 78.2845 60.448 78.4571 60.602C78.6345 60.7513 78.8818 60.875 79.1991 60.973C79.5211 61.0663 79.8991 61.1527 80.3331 61.232C80.7205 61.302 81.0868 61.3907 81.4321 61.498C81.7775 61.6007 82.0808 61.7337 82.3421 61.897C82.6081 62.0603 82.8158 62.268 82.9651 62.52C83.1191 62.7673 83.1961 63.0707 83.1961 63.43C83.1961 63.794 83.1121 64.1113 82.9441 64.382C82.7808 64.6527 82.5521 64.879 82.2581 65.061C81.9688 65.243 81.6328 65.3807 81.2501 65.474C80.8721 65.5627 80.4685 65.607 80.0391 65.607ZM87.9394 56.64V67H86.7494V57.935C86.7121 57.9863 86.5954 58.054 86.3994 58.138C86.2081 58.222 85.9701 58.3037 85.6854 58.383C85.4054 58.4577 85.1067 58.5113 84.7894 58.544V57.466C85.1021 57.4147 85.3961 57.3423 85.6714 57.249C85.9514 57.1557 86.1894 57.0553 86.3854 56.948C86.5814 56.836 86.7121 56.7333 86.7774 56.64H87.9394ZM90.8739 68.89L90.6919 68.554C90.8506 68.484 91.0209 68.3627 91.2029 68.19C91.3849 68.0173 91.5413 67.8237 91.6719 67.609C91.8026 67.399 91.8679 67.2007 91.8679 67.014C91.8679 66.9627 91.8609 66.9137 91.8469 66.867C91.8376 66.8203 91.8213 66.776 91.7979 66.734H92.1269C92.0616 66.8927 91.9543 67.007 91.8049 67.077C91.6556 67.147 91.5133 67.182 91.3779 67.182C91.1446 67.182 90.9463 67.1143 90.7829 66.979C90.6196 66.8437 90.5379 66.65 90.5379 66.398C90.5379 66.146 90.6266 65.9453 90.8039 65.796C90.9859 65.6467 91.2193 65.572 91.5039 65.572C91.8073 65.572 92.0453 65.663 92.2179 65.845C92.3953 66.027 92.4839 66.2837 92.4839 66.615C92.4839 66.9417 92.3999 67.2613 92.2319 67.574C92.0639 67.8867 91.8563 68.1597 91.6089 68.393C91.3616 68.6263 91.1166 68.792 90.8739 68.89ZM100.142 57.718H96.1097L95.7457 61.12C95.7597 61.064 95.8064 60.9893 95.8857 60.896C95.9697 60.8027 96.091 60.707 96.2497 60.609C96.413 60.511 96.616 60.4293 96.8587 60.364C97.1014 60.2987 97.386 60.266 97.7127 60.266C98.562 60.266 99.206 60.5693 99.6447 61.176C100.088 61.7827 100.31 62.583 100.31 63.577C100.31 64.3423 100.191 64.991 99.9527 65.523C99.7194 66.055 99.381 66.4587 98.9377 66.734C98.4944 67.0047 97.9577 67.14 97.3277 67.14C96.819 67.14 96.3757 67.0653 95.9977 66.916C95.6244 66.762 95.3164 66.5473 95.0737 66.272C94.8357 65.9967 94.656 65.6747 94.5347 65.306C94.418 64.9373 94.3597 64.5337 94.3597 64.095C94.3597 64.0903 94.3597 64.088 94.3597 64.088C94.3597 64.0833 94.3597 64.0787 94.3597 64.074H95.5427C95.5427 64.0787 95.5427 64.0833 95.5427 64.088C95.5427 64.088 95.5427 64.0903 95.5427 64.095C95.5474 64.7997 95.706 65.3083 96.0187 65.621C96.336 65.9337 96.777 66.09 97.3417 66.09C97.7057 66.09 98.0184 65.999 98.2797 65.817C98.5457 65.635 98.7487 65.3597 98.8887 64.991C99.0334 64.6223 99.1057 64.158 99.1057 63.598C99.1057 62.8513 98.968 62.2843 98.6927 61.897C98.422 61.5097 98.023 61.316 97.4957 61.316C97.155 61.316 96.8564 61.3837 96.5997 61.519C96.343 61.6497 96.1307 61.8107 95.9627 62.002C95.7994 62.1933 95.6827 62.3753 95.6127 62.548L94.4647 62.254L95.1017 56.675H100.142V57.718ZM105.341 67.14C104.776 67.14 104.293 67.0047 103.892 66.734C103.495 66.4587 103.171 66.0807 102.919 65.6C102.672 65.1147 102.49 64.5523 102.373 63.913C102.261 63.2737 102.205 62.59 102.205 61.862C102.205 61.134 102.261 60.4503 102.373 59.811C102.49 59.167 102.672 58.6023 102.919 58.117C103.171 57.627 103.495 57.2443 103.892 56.969C104.293 56.689 104.776 56.549 105.341 56.549C105.906 56.549 106.386 56.689 106.783 56.969C107.184 57.2443 107.509 57.627 107.756 58.117C108.003 58.6023 108.185 59.167 108.302 59.811C108.419 60.4503 108.477 61.134 108.477 61.862C108.477 62.59 108.419 63.2737 108.302 63.913C108.185 64.5523 108.003 65.1147 107.756 65.6C107.509 66.0807 107.184 66.4587 106.783 66.734C106.386 67.0047 105.906 67.14 105.341 67.14ZM105.341 66.09C105.78 66.09 106.139 65.929 106.419 65.607C106.704 65.285 106.916 64.809 107.056 64.179C107.196 63.549 107.266 62.7767 107.266 61.862C107.266 60.9427 107.196 60.168 107.056 59.538C106.916 58.908 106.704 58.432 106.419 58.11C106.139 57.7833 105.78 57.62 105.341 57.62C104.907 57.62 104.545 57.7833 104.256 58.11C103.971 58.432 103.759 58.908 103.619 59.538C103.479 60.168 103.409 60.9427 103.409 61.862C103.409 62.7813 103.479 63.556 103.619 64.186C103.759 64.8113 103.971 65.285 104.256 65.607C104.545 65.929 104.907 66.09 105.341 66.09ZM113.298 67.14C112.733 67.14 112.25 67.0047 111.849 66.734C111.452 66.4587 111.128 66.0807 110.876 65.6C110.629 65.1147 110.447 64.5523 110.33 63.913C110.218 63.2737 110.162 62.59 110.162 61.862C110.162 61.134 110.218 60.4503 110.33 59.811C110.447 59.167 110.629 58.6023 110.876 58.117C111.128 57.627 111.452 57.2443 111.849 56.969C112.25 56.689 112.733 56.549 113.298 56.549C113.863 56.549 114.343 56.689 114.74 56.969C115.141 57.2443 115.466 57.627 115.713 58.117C115.96 58.6023 116.142 59.167 116.259 59.811C116.376 60.4503 116.434 61.134 116.434 61.862C116.434 62.59 116.376 63.2737 116.259 63.913C116.142 64.5523 115.96 65.1147 115.713 65.6C115.466 66.0807 115.141 66.4587 114.74 66.734C114.343 67.0047 113.863 67.14 113.298 67.14ZM113.298 66.09C113.737 66.09 114.096 65.929 114.376 65.607C114.661 65.285 114.873 64.809 115.013 64.179C115.153 63.549 115.223 62.7767 115.223 61.862C115.223 60.9427 115.153 60.168 115.013 59.538C114.873 58.908 114.661 58.432 114.376 58.11C114.096 57.7833 113.737 57.62 113.298 57.62C112.864 57.62 112.502 57.7833 112.213 58.11C111.928 58.432 111.716 58.908 111.576 59.538C111.436 60.168 111.366 60.9427 111.366 61.862C111.366 62.7813 111.436 63.556 111.576 64.186C111.716 64.8113 111.928 65.285 112.213 65.607C112.502 65.929 112.864 66.09 113.298 66.09ZM118.532 68.89L118.35 68.554C118.509 68.484 118.679 68.3627 118.861 68.19C119.043 68.0173 119.199 67.8237 119.33 67.609C119.461 67.399 119.526 67.2007 119.526 67.014C119.526 66.9627 119.519 66.9137 119.505 66.867C119.496 66.8203 119.479 66.776 119.456 66.734H119.785C119.72 66.8927 119.612 67.007 119.463 67.077C119.314 67.147 119.171 67.182 119.036 67.182C118.803 67.182 118.604 67.1143 118.441 66.979C118.278 66.8437 118.196 66.65 118.196 66.398C118.196 66.146 118.285 65.9453 118.462 65.796C118.644 65.6467 118.877 65.572 119.162 65.572C119.465 65.572 119.703 65.663 119.876 65.845C120.053 66.027 120.142 66.2837 120.142 66.615C120.142 66.9417 120.058 67.2613 119.89 67.574C119.722 67.8867 119.514 68.1597 119.267 68.393C119.02 68.6263 118.775 68.792 118.532 68.89ZM125.056 67.14C124.491 67.14 124.008 67.0047 123.607 66.734C123.21 66.4587 122.886 66.0807 122.634 65.6C122.387 65.1147 122.205 64.5523 122.088 63.913C121.976 63.2737 121.92 62.59 121.92 61.862C121.92 61.134 121.976 60.4503 122.088 59.811C122.205 59.167 122.387 58.6023 122.634 58.117C122.886 57.627 123.21 57.2443 123.607 56.969C124.008 56.689 124.491 56.549 125.056 56.549C125.621 56.549 126.101 56.689 126.498 56.969C126.899 57.2443 127.224 57.627 127.471 58.117C127.718 58.6023 127.9 59.167 128.017 59.811C128.134 60.4503 128.192 61.134 128.192 61.862C128.192 62.59 128.134 63.2737 128.017 63.913C127.9 64.5523 127.718 65.1147 127.471 65.6C127.224 66.0807 126.899 66.4587 126.498 66.734C126.101 67.0047 125.621 67.14 125.056 67.14ZM125.056 66.09C125.495 66.09 125.854 65.929 126.134 65.607C126.419 65.285 126.631 64.809 126.771 64.179C126.911 63.549 126.981 62.7767 126.981 61.862C126.981 60.9427 126.911 60.168 126.771 59.538C126.631 58.908 126.419 58.432 126.134 58.11C125.854 57.7833 125.495 57.62 125.056 57.62C124.622 57.62 124.26 57.7833 123.971 58.11C123.686 58.432 123.474 58.908 123.334 59.538C123.194 60.168 123.124 60.9427 123.124 61.862C123.124 62.7813 123.194 63.556 123.334 64.186C123.474 64.8113 123.686 65.285 123.971 65.607C124.26 65.929 124.622 66.09 125.056 66.09ZM133.013 67.14C132.448 67.14 131.965 67.0047 131.564 66.734C131.167 66.4587 130.843 66.0807 130.591 65.6C130.344 65.1147 130.162 64.5523 130.045 63.913C129.933 63.2737 129.877 62.59 129.877 61.862C129.877 61.134 129.933 60.4503 130.045 59.811C130.162 59.167 130.344 58.6023 130.591 58.117C130.843 57.627 131.167 57.2443 131.564 56.969C131.965 56.689 132.448 56.549 133.013 56.549C133.578 56.549 134.058 56.689 134.455 56.969C134.856 57.2443 135.181 57.627 135.428 58.117C135.675 58.6023 135.857 59.167 135.974 59.811C136.091 60.4503 136.149 61.134 136.149 61.862C136.149 62.59 136.091 63.2737 135.974 63.913C135.857 64.5523 135.675 65.1147 135.428 65.6C135.181 66.0807 134.856 66.4587 134.455 66.734C134.058 67.0047 133.578 67.14 133.013 67.14ZM133.013 66.09C133.452 66.09 133.811 65.929 134.091 65.607C134.376 65.285 134.588 64.809 134.728 64.179C134.868 63.549 134.938 62.7767 134.938 61.862C134.938 60.9427 134.868 60.168 134.728 59.538C134.588 58.908 134.376 58.432 134.091 58.11C133.811 57.7833 133.452 57.62 133.013 57.62C132.579 57.62 132.217 57.7833 131.928 58.11C131.643 58.432 131.431 58.908 131.291 59.538C131.151 60.168 131.081 60.9427 131.081 61.862C131.081 62.7813 131.151 63.556 131.291 64.186C131.431 64.8113 131.643 65.285 131.928 65.607C132.217 65.929 132.579 66.09 133.013 66.09ZM140.97 67.14C140.405 67.14 139.922 67.0047 139.521 66.734C139.124 66.4587 138.8 66.0807 138.548 65.6C138.301 65.1147 138.119 64.5523 138.002 63.913C137.89 63.2737 137.834 62.59 137.834 61.862C137.834 61.134 137.89 60.4503 138.002 59.811C138.119 59.167 138.301 58.6023 138.548 58.117C138.8 57.627 139.124 57.2443 139.521 56.969C139.922 56.689 140.405 56.549 140.97 56.549C141.535 56.549 142.015 56.689 142.412 56.969C142.813 57.2443 143.138 57.627 143.385 58.117C143.632 58.6023 143.814 59.167 143.931 59.811C144.048 60.4503 144.106 61.134 144.106 61.862C144.106 62.59 144.048 63.2737 143.931 63.913C143.814 64.5523 143.632 65.1147 143.385 65.6C143.138 66.0807 142.813 66.4587 142.412 66.734C142.015 67.0047 141.535 67.14 140.97 67.14ZM140.97 66.09C141.409 66.09 141.768 65.929 142.048 65.607C142.333 65.285 142.545 64.809 142.685 64.179C142.825 63.549 142.895 62.7767 142.895 61.862C142.895 60.9427 142.825 60.168 142.685 59.538C142.545 58.908 142.333 58.432 142.048 58.11C141.768 57.7833 141.409 57.62 140.97 57.62C140.536 57.62 140.174 57.7833 139.885 58.11C139.6 58.432 139.388 58.908 139.248 59.538C139.108 60.168 139.038 60.9427 139.038 61.862C139.038 62.7813 139.108 63.556 139.248 64.186C139.388 64.8113 139.6 65.285 139.885 65.607C140.174 65.929 140.536 66.09 140.97 66.09Z" fill="white"/>
<path d="M79.5845 93.675H80.4175V104H79.5845V93.675ZM80.0255 102.607C79.5775 102.607 79.1621 102.56 78.7795 102.467C78.4015 102.369 78.0701 102.229 77.7855 102.047C77.5055 101.86 77.2861 101.632 77.1275 101.361C76.9735 101.09 76.8965 100.78 76.8965 100.43C76.8965 100.393 76.8965 100.355 76.8965 100.318C76.8965 100.276 76.8965 100.241 76.8965 100.213H78.0935C78.0935 100.241 78.0935 100.264 78.0935 100.283C78.0935 100.302 78.0935 100.33 78.0935 100.367C78.0935 100.745 78.2685 101.034 78.6185 101.235C78.9685 101.431 79.4468 101.529 80.0535 101.529C80.4268 101.529 80.7605 101.492 81.0545 101.417C81.3485 101.342 81.5795 101.228 81.7475 101.074C81.9201 100.92 82.0065 100.726 82.0065 100.493C82.0065 100.106 81.8245 99.8303 81.4605 99.667C81.1011 99.499 80.5621 99.3543 79.8435 99.233C79.4655 99.1677 79.1061 99.0837 78.7655 98.981C78.4248 98.8737 78.1215 98.736 77.8555 98.568C77.5941 98.4 77.3865 98.1923 77.2325 97.945C77.0831 97.693 77.0085 97.392 77.0085 97.042C77.0085 96.5893 77.1415 96.2067 77.4075 95.894C77.6781 95.5767 78.0421 95.3363 78.4995 95.173C78.9568 95.005 79.4655 94.921 80.0255 94.921C80.5668 94.921 81.0661 95.0073 81.5235 95.18C81.9808 95.3527 82.3471 95.6047 82.6225 95.936C82.9025 96.2627 83.0425 96.6663 83.0425 97.147C83.0425 97.1657 83.0425 97.189 83.0425 97.217C83.0425 97.2403 83.0425 97.2637 83.0425 97.287H81.8525C81.8525 97.2637 81.8525 97.245 81.8525 97.231C81.8525 97.217 81.8525 97.2007 81.8525 97.182C81.8525 96.9113 81.7661 96.6897 81.5935 96.517C81.4208 96.3397 81.1968 96.209 80.9215 96.125C80.6461 96.0363 80.3521 95.992 80.0395 95.992C79.7455 95.992 79.4561 96.0247 79.1715 96.09C78.8868 96.1507 78.6511 96.2533 78.4645 96.398C78.2778 96.5427 78.1845 96.741 78.1845 96.993C78.1845 97.245 78.2708 97.448 78.4435 97.602C78.6208 97.7513 78.8681 97.875 79.1855 97.973C79.5075 98.0663 79.8855 98.1527 80.3195 98.232C80.7068 98.302 81.0731 98.3907 81.4185 98.498C81.7638 98.6007 82.0671 98.7337 82.3285 98.897C82.5945 99.0603 82.8021 99.268 82.9515 99.52C83.1055 99.7673 83.1825 100.071 83.1825 100.43C83.1825 100.794 83.0985 101.111 82.9305 101.382C82.7671 101.653 82.5385 101.879 82.2445 102.061C81.9551 102.243 81.6191 102.381 81.2365 102.474C80.8585 102.563 80.4548 102.607 80.0255 102.607ZM87.9257 93.64V104H86.7357V94.935C86.6984 94.9863 86.5817 95.054 86.3857 95.138C86.1944 95.222 85.9564 95.3037 85.6717 95.383C85.3917 95.4577 85.0931 95.5113 84.7757 95.544V94.466C85.0884 94.4147 85.3824 94.3423 85.6577 94.249C85.9377 94.1557 86.1757 94.0553 86.3717 93.948C86.5677 93.836 86.6984 93.7333 86.7637 93.64H87.9257ZM90.8603 105.89L90.6783 105.554C90.8369 105.484 91.0073 105.363 91.1893 105.19C91.3713 105.017 91.5276 104.824 91.6583 104.609C91.7889 104.399 91.8543 104.201 91.8543 104.014C91.8543 103.963 91.8473 103.914 91.8333 103.867C91.8239 103.82 91.8076 103.776 91.7843 103.734H92.1133C92.0479 103.893 91.9406 104.007 91.7913 104.077C91.6419 104.147 91.4996 104.182 91.3643 104.182C91.1309 104.182 90.9326 104.114 90.7693 103.979C90.6059 103.844 90.5243 103.65 90.5243 103.398C90.5243 103.146 90.6129 102.945 90.7903 102.796C90.9723 102.647 91.2056 102.572 91.4903 102.572C91.7936 102.572 92.0316 102.663 92.2043 102.845C92.3816 103.027 92.4703 103.284 92.4703 103.615C92.4703 103.942 92.3863 104.261 92.2183 104.574C92.0503 104.887 91.8426 105.16 91.5953 105.393C91.3479 105.626 91.1029 105.792 90.8603 105.89ZM97.384 104.14C96.8194 104.14 96.3364 104.005 95.935 103.734C95.5384 103.459 95.214 103.081 94.962 102.6C94.7147 102.115 94.5327 101.552 94.416 100.913C94.304 100.274 94.248 99.59 94.248 98.862C94.248 98.134 94.304 97.4503 94.416 96.811C94.5327 96.167 94.7147 95.6023 94.962 95.117C95.214 94.627 95.5384 94.2443 95.935 93.969C96.3364 93.689 96.8194 93.549 97.384 93.549C97.9487 93.549 98.4294 93.689 98.826 93.969C99.2274 94.2443 99.5517 94.627 99.799 95.117C100.046 95.6023 100.228 96.167 100.345 96.811C100.462 97.4503 100.52 98.134 100.52 98.862C100.52 99.59 100.462 100.274 100.345 100.913C100.228 101.552 100.046 102.115 99.799 102.6C99.5517 103.081 99.2274 103.459 98.826 103.734C98.4294 104.005 97.9487 104.14 97.384 104.14ZM97.384 103.09C97.8227 103.09 98.182 102.929 98.462 102.607C98.7467 102.285 98.959 101.809 99.099 101.179C99.239 100.549 99.309 99.7767 99.309 98.862C99.309 97.9427 99.239 97.168 99.099 96.538C98.959 95.908 98.7467 95.432 98.462 95.11C98.182 94.7833 97.8227 94.62 97.384 94.62C96.95 94.62 96.5884 94.7833 96.299 95.11C96.0144 95.432 95.802 95.908 95.662 96.538C95.522 97.168 95.452 97.9427 95.452 98.862C95.452 99.7813 95.522 100.556 95.662 101.186C95.802 101.811 96.0144 102.285 96.299 102.607C96.5884 102.929 96.95 103.09 97.384 103.09ZM105.341 104.14C104.776 104.14 104.293 104.005 103.892 103.734C103.495 103.459 103.171 103.081 102.919 102.6C102.672 102.115 102.49 101.552 102.373 100.913C102.261 100.274 102.205 99.59 102.205 98.862C102.205 98.134 102.261 97.4503 102.373 96.811C102.49 96.167 102.672 95.6023 102.919 95.117C103.171 94.627 103.495 94.2443 103.892 93.969C104.293 93.689 104.776 93.549 105.341 93.549C105.906 93.549 106.386 93.689 106.783 93.969C107.184 94.2443 107.509 94.627 107.756 95.117C108.003 95.6023 108.185 96.167 108.302 96.811C108.419 97.4503 108.477 98.134 108.477 98.862C108.477 99.59 108.419 100.274 108.302 100.913C108.185 101.552 108.003 102.115 107.756 102.6C107.509 103.081 107.184 103.459 106.783 103.734C106.386 104.005 105.906 104.14 105.341 104.14ZM105.341 103.09C105.78 103.09 106.139 102.929 106.419 102.607C106.704 102.285 106.916 101.809 107.056 101.179C107.196 100.549 107.266 99.7767 107.266 98.862C107.266 97.9427 107.196 97.168 107.056 96.538C106.916 95.908 106.704 95.432 106.419 95.11C106.139 94.7833 105.78 94.62 105.341 94.62C104.907 94.62 104.545 94.7833 104.256 95.11C103.971 95.432 103.759 95.908 103.619 96.538C103.479 97.168 103.409 97.9427 103.409 98.862C103.409 99.7813 103.479 100.556 103.619 101.186C103.759 101.811 103.971 102.285 104.256 102.607C104.545 102.929 104.907 103.09 105.341 103.09ZM113.298 104.14C112.733 104.14 112.25 104.005 111.849 103.734C111.452 103.459 111.128 103.081 110.876 102.6C110.629 102.115 110.447 101.552 110.33 100.913C110.218 100.274 110.162 99.59 110.162 98.862C110.162 98.134 110.218 97.4503 110.33 96.811C110.447 96.167 110.629 95.6023 110.876 95.117C111.128 94.627 111.452 94.2443 111.849 93.969C112.25 93.689 112.733 93.549 113.298 93.549C113.863 93.549 114.343 93.689 114.74 93.969C115.141 94.2443 115.466 94.627 115.713 95.117C115.96 95.6023 116.142 96.167 116.259 96.811C116.376 97.4503 116.434 98.134 116.434 98.862C116.434 99.59 116.376 100.274 116.259 100.913C116.142 101.552 115.96 102.115 115.713 102.6C115.466 103.081 115.141 103.459 114.74 103.734C114.343 104.005 113.863 104.14 113.298 104.14ZM113.298 103.09C113.737 103.09 114.096 102.929 114.376 102.607C114.661 102.285 114.873 101.809 115.013 101.179C115.153 100.549 115.223 99.7767 115.223 98.862C115.223 97.9427 115.153 97.168 115.013 96.538C114.873 95.908 114.661 95.432 114.376 95.11C114.096 94.7833 113.737 94.62 113.298 94.62C112.864 94.62 112.502 94.7833 112.213 95.11C111.928 95.432 111.716 95.908 111.576 96.538C111.436 97.168 111.366 97.9427 111.366 98.862C111.366 99.7813 111.436 100.556 111.576 101.186C111.716 101.811 111.928 102.285 112.213 102.607C112.502 102.929 112.864 103.09 113.298 103.09ZM118.532 105.89L118.35 105.554C118.509 105.484 118.679 105.363 118.861 105.19C119.043 105.017 119.199 104.824 119.33 104.609C119.461 104.399 119.526 104.201 119.526 104.014C119.526 103.963 119.519 103.914 119.505 103.867C119.496 103.82 119.479 103.776 119.456 103.734H119.785C119.72 103.893 119.612 104.007 119.463 104.077C119.314 104.147 119.171 104.182 119.036 104.182C118.803 104.182 118.604 104.114 118.441 103.979C118.278 103.844 118.196 103.65 118.196 103.398C118.196 103.146 118.285 102.945 118.462 102.796C118.644 102.647 118.877 102.572 119.162 102.572C119.465 102.572 119.703 102.663 119.876 102.845C120.053 103.027 120.142 103.284 120.142 103.615C120.142 103.942 120.058 104.261 119.89 104.574C119.722 104.887 119.514 105.16 119.267 105.393C119.02 105.626 118.775 105.792 118.532 105.89ZM125.056 104.14C124.491 104.14 124.008 104.005 123.607 103.734C123.21 103.459 122.886 103.081 122.634 102.6C122.387 102.115 122.205 101.552 122.088 100.913C121.976 100.274 121.92 99.59 121.92 98.862C121.92 98.134 121.976 97.4503 122.088 96.811C122.205 96.167 122.387 95.6023 122.634 95.117C122.886 94.627 123.21 94.2443 123.607 93.969C124.008 93.689 124.491 93.549 125.056 93.549C125.621 93.549 126.101 93.689 126.498 93.969C126.899 94.2443 127.224 94.627 127.471 95.117C127.718 95.6023 127.9 96.167 128.017 96.811C128.134 97.4503 128.192 98.134 128.192 98.862C128.192 99.59 128.134 100.274 128.017 100.913C127.9 101.552 127.718 102.115 127.471 102.6C127.224 103.081 126.899 103.459 126.498 103.734C126.101 104.005 125.621 104.14 125.056 104.14ZM125.056 103.09C125.495 103.09 125.854 102.929 126.134 102.607C126.419 102.285 126.631 101.809 126.771 101.179C126.911 100.549 126.981 99.7767 126.981 98.862C126.981 97.9427 126.911 97.168 126.771 96.538C126.631 95.908 126.419 95.432 126.134 95.11C125.854 94.7833 125.495 94.62 125.056 94.62C124.622 94.62 124.26 94.7833 123.971 95.11C123.686 95.432 123.474 95.908 123.334 96.538C123.194 97.168 123.124 97.9427 123.124 98.862C123.124 99.7813 123.194 100.556 123.334 101.186C123.474 101.811 123.686 102.285 123.971 102.607C124.26 102.929 124.622 103.09 125.056 103.09ZM133.013 104.14C132.448 104.14 131.965 104.005 131.564 103.734C131.167 103.459 130.843 103.081 130.591 102.6C130.344 102.115 130.162 101.552 130.045 100.913C129.933 100.274 129.877 99.59 129.877 98.862C129.877 98.134 129.933 97.4503 130.045 96.811C130.162 96.167 130.344 95.6023 130.591 95.117C130.843 94.627 131.167 94.2443 131.564 93.969C131.965 93.689 132.448 93.549 133.013 93.549C133.578 93.549 134.058 93.689 134.455 93.969C134.856 94.2443 135.181 94.627 135.428 95.117C135.675 95.6023 135.857 96.167 135.974 96.811C136.091 97.4503 136.149 98.134 136.149 98.862C136.149 99.59 136.091 100.274 135.974 100.913C135.857 101.552 135.675 102.115 135.428 102.6C135.181 103.081 134.856 103.459 134.455 103.734C134.058 104.005 133.578 104.14 133.013 104.14ZM133.013 103.09C133.452 103.09 133.811 102.929 134.091 102.607C134.376 102.285 134.588 101.809 134.728 101.179C134.868 100.549 134.938 99.7767 134.938 98.862C134.938 97.9427 134.868 97.168 134.728 96.538C134.588 95.908 134.376 95.432 134.091 95.11C133.811 94.7833 133.452 94.62 133.013 94.62C132.579 94.62 132.217 94.7833 131.928 95.11C131.643 95.432 131.431 95.908 131.291 96.538C131.151 97.168 131.081 97.9427 131.081 98.862C131.081 99.7813 131.151 100.556 131.291 101.186C131.431 101.811 131.643 102.285 131.928 102.607C132.217 102.929 132.579 103.09 133.013 103.09ZM140.97 104.14C140.405 104.14 139.922 104.005 139.521 103.734C139.124 103.459 138.8 103.081 138.548 102.6C138.301 102.115 138.119 101.552 138.002 100.913C137.89 100.274 137.834 99.59 137.834 98.862C137.834 98.134 137.89 97.4503 138.002 96.811C138.119 96.167 138.301 95.6023 138.548 95.117C138.8 94.627 139.124 94.2443 139.521 93.969C139.922 93.689 140.405 93.549 140.97 93.549C141.535 93.549 142.015 93.689 142.412 93.969C142.813 94.2443 143.138 94.627 143.385 95.117C143.632 95.6023 143.814 96.167 143.931 96.811C144.048 97.4503 144.106 98.134 144.106 98.862C144.106 99.59 144.048 100.274 143.931 100.913C143.814 101.552 143.632 102.115 143.385 102.6C143.138 103.081 142.813 103.459 142.412 103.734C142.015 104.005 141.535 104.14 140.97 104.14ZM140.97 103.09C141.409 103.09 141.768 102.929 142.048 102.607C142.333 102.285 142.545 101.809 142.685 101.179C142.825 100.549 142.895 99.7767 142.895 98.862C142.895 97.9427 142.825 97.168 142.685 96.538C142.545 95.908 142.333 95.432 142.048 95.11C141.768 94.7833 141.409 94.62 140.97 94.62C140.536 94.62 140.174 94.7833 139.885 95.11C139.6 95.432 139.388 95.908 139.248 96.538C139.108 97.168 139.038 97.9427 139.038 98.862C139.038 99.7813 139.108 100.556 139.248 101.186C139.388 101.811 139.6 102.285 139.885 102.607C140.174 102.929 140.536 103.09 140.97 103.09Z" fill="white"/>
<path d="M89.1684 130.675H90.0014V141H89.1684V130.675ZM89.6094 139.607C89.1614 139.607 88.7461 139.56 88.3634 139.467C87.9854 139.369 87.6541 139.229 87.3694 139.047C87.0894 138.86 86.8701 138.632 86.7114 138.361C86.5574 138.09 86.4804 137.78 86.4804 137.43C86.4804 137.393 86.4804 137.355 86.4804 137.318C86.4804 137.276 86.4804 137.241 86.4804 137.213H87.6774C87.6774 137.241 87.6774 137.264 87.6774 137.283C87.6774 137.302 87.6774 137.33 87.6774 137.367C87.6774 137.745 87.8524 138.034 88.2024 138.235C88.5524 138.431 89.0308 138.529 89.6374 138.529C90.0108 138.529 90.3444 138.492 90.6384 138.417C90.9324 138.342 91.1634 138.228 91.3314 138.074C91.5041 137.92 91.5904 137.726 91.5904 137.493C91.5904 137.106 91.4084 136.83 91.0444 136.667C90.6851 136.499 90.1461 136.354 89.4274 136.233C89.0494 136.168 88.6901 136.084 88.3494 135.981C88.0088 135.874 87.7054 135.736 87.4394 135.568C87.1781 135.4 86.9704 135.192 86.8164 134.945C86.6671 134.693 86.5924 134.392 86.5924 134.042C86.5924 133.589 86.7254 133.207 86.9914 132.894C87.2621 132.577 87.6261 132.336 88.0834 132.173C88.5408 132.005 89.0494 131.921 89.6094 131.921C90.1508 131.921 90.6501 132.007 91.1074 132.18C91.5648 132.353 91.9311 132.605 92.2064 132.936C92.4864 133.263 92.6264 133.666 92.6264 134.147C92.6264 134.166 92.6264 134.189 92.6264 134.217C92.6264 134.24 92.6264 134.264 92.6264 134.287H91.4364C91.4364 134.264 91.4364 134.245 91.4364 134.231C91.4364 134.217 91.4364 134.201 91.4364 134.182C91.4364 133.911 91.3501 133.69 91.1774 133.517C91.0048 133.34 90.7808 133.209 90.5054 133.125C90.2301 133.036 89.9361 132.992 89.6234 132.992C89.3294 132.992 89.0401 133.025 88.7554 133.09C88.4708 133.151 88.2351 133.253 88.0484 133.398C87.8618 133.543 87.7684 133.741 87.7684 133.993C87.7684 134.245 87.8548 134.448 88.0274 134.602C88.2048 134.751 88.4521 134.875 88.7694 134.973C89.0914 135.066 89.4694 135.153 89.9034 135.232C90.2908 135.302 90.6571 135.391 91.0024 135.498C91.3478 135.601 91.6511 135.734 91.9124 135.897C92.1784 136.06 92.3861 136.268 92.5354 136.52C92.6894 136.767 92.7664 137.071 92.7664 137.43C92.7664 137.794 92.6824 138.111 92.5144 138.382C92.3511 138.653 92.1224 138.879 91.8284 139.061C91.5391 139.243 91.2031 139.381 90.8204 139.474C90.4424 139.563 90.0388 139.607 89.6094 139.607ZM100.142 131.718H96.1097L95.7457 135.12C95.7597 135.064 95.8064 134.989 95.8857 134.896C95.9697 134.803 96.091 134.707 96.2497 134.609C96.413 134.511 96.616 134.429 96.8587 134.364C97.1014 134.299 97.386 134.266 97.7127 134.266C98.562 134.266 99.206 134.569 99.6447 135.176C100.088 135.783 100.31 136.583 100.31 137.577C100.31 138.342 100.191 138.991 99.9527 139.523C99.7194 140.055 99.381 140.459 98.9377 140.734C98.4944 141.005 97.9577 141.14 97.3277 141.14C96.819 141.14 96.3757 141.065 95.9977 140.916C95.6244 140.762 95.3164 140.547 95.0737 140.272C94.8357 139.997 94.656 139.675 94.5347 139.306C94.418 138.937 94.3597 138.534 94.3597 138.095C94.3597 138.09 94.3597 138.088 94.3597 138.088C94.3597 138.083 94.3597 138.079 94.3597 138.074H95.5427C95.5427 138.079 95.5427 138.083 95.5427 138.088C95.5427 138.088 95.5427 138.09 95.5427 138.095C95.5474 138.8 95.706 139.308 96.0187 139.621C96.336 139.934 96.777 140.09 97.3417 140.09C97.7057 140.09 98.0184 139.999 98.2797 139.817C98.5457 139.635 98.7487 139.36 98.8887 138.991C99.0334 138.622 99.1057 138.158 99.1057 137.598C99.1057 136.851 98.968 136.284 98.6927 135.897C98.422 135.51 98.023 135.316 97.4957 135.316C97.155 135.316 96.8564 135.384 96.5997 135.519C96.343 135.65 96.1307 135.811 95.9627 136.002C95.7994 136.193 95.6827 136.375 95.6127 136.548L94.4647 136.254L95.1017 130.675H100.142V131.718ZM105.341 141.14C104.776 141.14 104.293 141.005 103.892 140.734C103.495 140.459 103.171 140.081 102.919 139.6C102.672 139.115 102.49 138.552 102.373 137.913C102.261 137.274 102.205 136.59 102.205 135.862C102.205 135.134 102.261 134.45 102.373 133.811C102.49 133.167 102.672 132.602 102.919 132.117C103.171 131.627 103.495 131.244 103.892 130.969C104.293 130.689 104.776 130.549 105.341 130.549C105.906 130.549 106.386 130.689 106.783 130.969C107.184 131.244 107.509 131.627 107.756 132.117C108.003 132.602 108.185 133.167 108.302 133.811C108.419 134.45 108.477 135.134 108.477 135.862C108.477 136.59 108.419 137.274 108.302 137.913C108.185 138.552 108.003 139.115 107.756 139.6C107.509 140.081 107.184 140.459 106.783 140.734C106.386 141.005 105.906 141.14 105.341 141.14ZM105.341 140.09C105.78 140.09 106.139 139.929 106.419 139.607C106.704 139.285 106.916 138.809 107.056 138.179C107.196 137.549 107.266 136.777 107.266 135.862C107.266 134.943 107.196 134.168 107.056 133.538C106.916 132.908 106.704 132.432 106.419 132.11C106.139 131.783 105.78 131.62 105.341 131.62C104.907 131.62 104.545 131.783 104.256 132.11C103.971 132.432 103.759 132.908 103.619 133.538C103.479 134.168 103.409 134.943 103.409 135.862C103.409 136.781 103.479 137.556 103.619 138.186C103.759 138.811 103.971 139.285 104.256 139.607C104.545 139.929 104.907 140.09 105.341 140.09ZM113.298 141.14C112.733 141.14 112.25 141.005 111.849 140.734C111.452 140.459 111.128 140.081 110.876 139.6C110.629 139.115 110.447 138.552 110.33 137.913C110.218 137.274 110.162 136.59 110.162 135.862C110.162 135.134 110.218 134.45 110.33 133.811C110.447 133.167 110.629 132.602 110.876 132.117C111.128 131.627 111.452 131.244 111.849 130.969C112.25 130.689 112.733 130.549 113.298 130.549C113.863 130.549 114.343 130.689 114.74 130.969C115.141 131.244 115.466 131.627 115.713 132.117C115.96 132.602 116.142 133.167 116.259 133.811C116.376 134.45 116.434 135.134 116.434 135.862C116.434 136.59 116.376 137.274 116.259 137.913C116.142 138.552 115.96 139.115 115.713 139.6C115.466 140.081 115.141 140.459 114.74 140.734C114.343 141.005 113.863 141.14 113.298 141.14ZM113.298 140.09C113.737 140.09 114.096 139.929 114.376 139.607C114.661 139.285 114.873 138.809 115.013 138.179C115.153 137.549 115.223 136.777 115.223 135.862C115.223 134.943 115.153 134.168 115.013 133.538C114.873 132.908 114.661 132.432 114.376 132.11C114.096 131.783 113.737 131.62 113.298 131.62C112.864 131.62 112.502 131.783 112.213 132.11C111.928 132.432 111.716 132.908 111.576 133.538C111.436 134.168 111.366 134.943 111.366 135.862C111.366 136.781 111.436 137.556 111.576 138.186C111.716 138.811 111.928 139.285 112.213 139.607C112.502 139.929 112.864 140.09 113.298 140.09ZM118.532 142.89L118.35 142.554C118.509 142.484 118.679 142.363 118.861 142.19C119.043 142.017 119.199 141.824 119.33 141.609C119.461 141.399 119.526 141.201 119.526 141.014C119.526 140.963 119.519 140.914 119.505 140.867C119.496 140.82 119.479 140.776 119.456 140.734H119.785C119.72 140.893 119.612 141.007 119.463 141.077C119.314 141.147 119.171 141.182 119.036 141.182C118.803 141.182 118.604 141.114 118.441 140.979C118.278 140.844 118.196 140.65 118.196 140.398C118.196 140.146 118.285 139.945 118.462 139.796C118.644 139.647 118.877 139.572 119.162 139.572C119.465 139.572 119.703 139.663 119.876 139.845C120.053 140.027 120.142 140.284 120.142 140.615C120.142 140.942 120.058 141.261 119.89 141.574C119.722 141.887 119.514 142.16 119.267 142.393C119.02 142.626 118.775 142.792 118.532 142.89ZM125.056 141.14C124.491 141.14 124.008 141.005 123.607 140.734C123.21 140.459 122.886 140.081 122.634 139.6C122.387 139.115 122.205 138.552 122.088 137.913C121.976 137.274 121.92 136.59 121.92 135.862C121.92 135.134 121.976 134.45 122.088 133.811C122.205 133.167 122.387 132.602 122.634 132.117C122.886 131.627 123.21 131.244 123.607 130.969C124.008 130.689 124.491 130.549 125.056 130.549C125.621 130.549 126.101 130.689 126.498 130.969C126.899 131.244 127.224 131.627 127.471 132.117C127.718 132.602 127.9 133.167 128.017 133.811C128.134 134.45 128.192 135.134 128.192 135.862C128.192 136.59 128.134 137.274 128.017 137.913C127.9 138.552 127.718 139.115 127.471 139.6C127.224 140.081 126.899 140.459 126.498 140.734C126.101 141.005 125.621 141.14 125.056 141.14ZM125.056 140.09C125.495 140.09 125.854 139.929 126.134 139.607C126.419 139.285 126.631 138.809 126.771 138.179C126.911 137.549 126.981 136.777 126.981 135.862C126.981 134.943 126.911 134.168 126.771 133.538C126.631 132.908 126.419 132.432 126.134 132.11C125.854 131.783 125.495 131.62 125.056 131.62C124.622 131.62 124.26 131.783 123.971 132.11C123.686 132.432 123.474 132.908 123.334 133.538C123.194 134.168 123.124 134.943 123.124 135.862C123.124 136.781 123.194 137.556 123.334 138.186C123.474 138.811 123.686 139.285 123.971 139.607C124.26 139.929 124.622 140.09 125.056 140.09ZM133.013 141.14C132.448 141.14 131.965 141.005 131.564 140.734C131.167 140.459 130.843 140.081 130.591 139.6C130.344 139.115 130.162 138.552 130.045 137.913C129.933 137.274 129.877 136.59 129.877 135.862C129.877 135.134 129.933 134.45 130.045 133.811C130.162 133.167 130.344 132.602 130.591 132.117C130.843 131.627 131.167 131.244 131.564 130.969C131.965 130.689 132.448 130.549 133.013 130.549C133.578 130.549 134.058 130.689 134.455 130.969C134.856 131.244 135.181 131.627 135.428 132.117C135.675 132.602 135.857 133.167 135.974 133.811C136.091 134.45 136.149 135.134 136.149 135.862C136.149 136.59 136.091 137.274 135.974 137.913C135.857 138.552 135.675 139.115 135.428 139.6C135.181 140.081 134.856 140.459 134.455 140.734C134.058 141.005 133.578 141.14 133.013 141.14ZM133.013 140.09C133.452 140.09 133.811 139.929 134.091 139.607C134.376 139.285 134.588 138.809 134.728 138.179C134.868 137.549 134.938 136.777 134.938 135.862C134.938 134.943 134.868 134.168 134.728 133.538C134.588 132.908 134.376 132.432 134.091 132.11C133.811 131.783 133.452 131.62 133.013 131.62C132.579 131.62 132.217 131.783 131.928 132.11C131.643 132.432 131.431 132.908 131.291 133.538C131.151 134.168 131.081 134.943 131.081 135.862C131.081 136.781 131.151 137.556 131.291 138.186C131.431 138.811 131.643 139.285 131.928 139.607C132.217 139.929 132.579 140.09 133.013 140.09ZM140.97 141.14C140.405 141.14 139.922 141.005 139.521 140.734C139.124 140.459 138.8 140.081 138.548 139.6C138.301 139.115 138.119 138.552 138.002 137.913C137.89 137.274 137.834 136.59 137.834 135.862C137.834 135.134 137.89 134.45 138.002 133.811C138.119 133.167 138.301 132.602 138.548 132.117C138.8 131.627 139.124 131.244 139.521 130.969C139.922 130.689 140.405 130.549 140.97 130.549C141.535 130.549 142.015 130.689 142.412 130.969C142.813 131.244 143.138 131.627 143.385 132.117C143.632 132.602 143.814 133.167 143.931 133.811C144.048 134.45 144.106 135.134 144.106 135.862C144.106 136.59 144.048 137.274 143.931 137.913C143.814 138.552 143.632 139.115 143.385 139.6C143.138 140.081 142.813 140.459 142.412 140.734C142.015 141.005 141.535 141.14 140.97 141.14ZM140.97 140.09C141.409 140.09 141.768 139.929 142.048 139.607C142.333 139.285 142.545 138.809 142.685 138.179C142.825 137.549 142.895 136.777 142.895 135.862C142.895 134.943 142.825 134.168 142.685 133.538C142.545 132.908 142.333 132.432 142.048 132.11C141.768 131.783 141.409 131.62 140.97 131.62C140.536 131.62 140.174 131.783 139.885 132.11C139.6 132.432 139.388 132.908 139.248 133.538C139.108 134.168 139.038 134.943 139.038 135.862C139.038 136.781 139.108 137.556 139.248 138.186C139.388 138.811 139.6 139.285 139.885 139.607C140.174 139.929 140.536 140.09 140.97 140.09Z" fill="white"/>
<path d="M89.1684 167.675H90.0014V178H89.1684V167.675ZM89.6094 176.607C89.1614 176.607 88.7461 176.56 88.3634 176.467C87.9854 176.369 87.6541 176.229 87.3694 176.047C87.0894 175.86 86.8701 175.632 86.7114 175.361C86.5574 175.09 86.4804 174.78 86.4804 174.43C86.4804 174.393 86.4804 174.355 86.4804 174.318C86.4804 174.276 86.4804 174.241 86.4804 174.213H87.6774C87.6774 174.241 87.6774 174.264 87.6774 174.283C87.6774 174.302 87.6774 174.33 87.6774 174.367C87.6774 174.745 87.8524 175.034 88.2024 175.235C88.5524 175.431 89.0308 175.529 89.6374 175.529C90.0108 175.529 90.3444 175.492 90.6384 175.417C90.9324 175.342 91.1634 175.228 91.3314 175.074C91.5041 174.92 91.5904 174.726 91.5904 174.493C91.5904 174.106 91.4084 173.83 91.0444 173.667C90.6851 173.499 90.1461 173.354 89.4274 173.233C89.0494 173.168 88.6901 173.084 88.3494 172.981C88.0088 172.874 87.7054 172.736 87.4394 172.568C87.1781 172.4 86.9704 172.192 86.8164 171.945C86.6671 171.693 86.5924 171.392 86.5924 171.042C86.5924 170.589 86.7254 170.207 86.9914 169.894C87.2621 169.577 87.6261 169.336 88.0834 169.173C88.5408 169.005 89.0494 168.921 89.6094 168.921C90.1508 168.921 90.6501 169.007 91.1074 169.18C91.5648 169.353 91.9311 169.605 92.2064 169.936C92.4864 170.263 92.6264 170.666 92.6264 171.147C92.6264 171.166 92.6264 171.189 92.6264 171.217C92.6264 171.24 92.6264 171.264 92.6264 171.287H91.4364C91.4364 171.264 91.4364 171.245 91.4364 171.231C91.4364 171.217 91.4364 171.201 91.4364 171.182C91.4364 170.911 91.3501 170.69 91.1774 170.517C91.0048 170.34 90.7808 170.209 90.5054 170.125C90.2301 170.036 89.9361 169.992 89.6234 169.992C89.3294 169.992 89.0401 170.025 88.7554 170.09C88.4708 170.151 88.2351 170.253 88.0484 170.398C87.8618 170.543 87.7684 170.741 87.7684 170.993C87.7684 171.245 87.8548 171.448 88.0274 171.602C88.2048 171.751 88.4521 171.875 88.7694 171.973C89.0914 172.066 89.4694 172.153 89.9034 172.232C90.2908 172.302 90.6571 172.391 91.0024 172.498C91.3478 172.601 91.6511 172.734 91.9124 172.897C92.1784 173.06 92.3861 173.268 92.5354 173.52C92.6894 173.767 92.7664 174.071 92.7664 174.43C92.7664 174.794 92.6824 175.111 92.5144 175.382C92.3511 175.653 92.1224 175.879 91.8284 176.061C91.5391 176.243 91.2031 176.381 90.8204 176.474C90.4424 176.563 90.0388 176.607 89.6094 176.607ZM100.142 168.718H96.1097L95.7457 172.12C95.7597 172.064 95.8064 171.989 95.8857 171.896C95.9697 171.803 96.091 171.707 96.2497 171.609C96.413 171.511 96.616 171.429 96.8587 171.364C97.1014 171.299 97.386 171.266 97.7127 171.266C98.562 171.266 99.206 171.569 99.6447 172.176C100.088 172.783 100.31 173.583 100.31 174.577C100.31 175.342 100.191 175.991 99.9527 176.523C99.7194 177.055 99.381 177.459 98.9377 177.734C98.4944 178.005 97.9577 178.14 97.3277 178.14C96.819 178.14 96.3757 178.065 95.9977 177.916C95.6244 177.762 95.3164 177.547 95.0737 177.272C94.8357 176.997 94.656 176.675 94.5347 176.306C94.418 175.937 94.3597 175.534 94.3597 175.095C94.3597 175.09 94.3597 175.088 94.3597 175.088C94.3597 175.083 94.3597 175.079 94.3597 175.074H95.5427C95.5427 175.079 95.5427 175.083 95.5427 175.088C95.5427 175.088 95.5427 175.09 95.5427 175.095C95.5474 175.8 95.706 176.308 96.0187 176.621C96.336 176.934 96.777 177.09 97.3417 177.09C97.7057 177.09 98.0184 176.999 98.2797 176.817C98.5457 176.635 98.7487 176.36 98.8887 175.991C99.0334 175.622 99.1057 175.158 99.1057 174.598C99.1057 173.851 98.968 173.284 98.6927 172.897C98.422 172.51 98.023 172.316 97.4957 172.316C97.155 172.316 96.8564 172.384 96.5997 172.519C96.343 172.65 96.1307 172.811 95.9627 173.002C95.7994 173.193 95.6827 173.375 95.6127 173.548L94.4647 173.254L95.1017 167.675H100.142V168.718ZM105.341 178.14C104.776 178.14 104.293 178.005 103.892 177.734C103.495 177.459 103.171 177.081 102.919 176.6C102.672 176.115 102.49 175.552 102.373 174.913C102.261 174.274 102.205 173.59 102.205 172.862C102.205 172.134 102.261 171.45 102.373 170.811C102.49 170.167 102.672 169.602 102.919 169.117C103.171 168.627 103.495 168.244 103.892 167.969C104.293 167.689 104.776 167.549 105.341 167.549C105.906 167.549 106.386 167.689 106.783 167.969C107.184 168.244 107.509 168.627 107.756 169.117C108.003 169.602 108.185 170.167 108.302 170.811C108.419 171.45 108.477 172.134 108.477 172.862C108.477 173.59 108.419 174.274 108.302 174.913C108.185 175.552 108.003 176.115 107.756 176.6C107.509 177.081 107.184 177.459 106.783 177.734C106.386 178.005 105.906 178.14 105.341 178.14ZM105.341 177.09C105.78 177.09 106.139 176.929 106.419 176.607C106.704 176.285 106.916 175.809 107.056 175.179C107.196 174.549 107.266 173.777 107.266 172.862C107.266 171.943 107.196 171.168 107.056 170.538C106.916 169.908 106.704 169.432 106.419 169.11C106.139 168.783 105.78 168.62 105.341 168.62C104.907 168.62 104.545 168.783 104.256 169.11C103.971 169.432 103.759 169.908 103.619 170.538C103.479 171.168 103.409 171.943 103.409 172.862C103.409 173.781 103.479 174.556 103.619 175.186C103.759 175.811 103.971 176.285 104.256 176.607C104.545 176.929 104.907 177.09 105.341 177.09ZM113.298 178.14C112.733 178.14 112.25 178.005 111.849 177.734C111.452 177.459 111.128 177.081 110.876 176.6C110.629 176.115 110.447 175.552 110.33 174.913C110.218 174.274 110.162 173.59 110.162 172.862C110.162 172.134 110.218 171.45 110.33 170.811C110.447 170.167 110.629 169.602 110.876 169.117C111.128 168.627 111.452 168.244 111.849 167.969C112.25 167.689 112.733 167.549 113.298 167.549C113.863 167.549 114.343 167.689 114.74 167.969C115.141 168.244 115.466 168.627 115.713 169.117C115.96 169.602 116.142 170.167 116.259 170.811C116.376 171.45 116.434 172.134 116.434 172.862C116.434 173.59 116.376 174.274 116.259 174.913C116.142 175.552 115.96 176.115 115.713 176.6C115.466 177.081 115.141 177.459 114.74 177.734C114.343 178.005 113.863 178.14 113.298 178.14ZM113.298 177.09C113.737 177.09 114.096 176.929 114.376 176.607C114.661 176.285 114.873 175.809 115.013 175.179C115.153 174.549 115.223 173.777 115.223 172.862C115.223 171.943 115.153 171.168 115.013 170.538C114.873 169.908 114.661 169.432 114.376 169.11C114.096 168.783 113.737 168.62 113.298 168.62C112.864 168.62 112.502 168.783 112.213 169.11C111.928 169.432 111.716 169.908 111.576 170.538C111.436 171.168 111.366 171.943 111.366 172.862C111.366 173.781 111.436 174.556 111.576 175.186C111.716 175.811 111.928 176.285 112.213 176.607C112.502 176.929 112.864 177.09 113.298 177.09ZM118.532 179.89L118.35 179.554C118.509 179.484 118.679 179.363 118.861 179.19C119.043 179.017 119.199 178.824 119.33 178.609C119.461 178.399 119.526 178.201 119.526 178.014C119.526 177.963 119.519 177.914 119.505 177.867C119.496 177.82 119.479 177.776 119.456 177.734H119.785C119.72 177.893 119.612 178.007 119.463 178.077C119.314 178.147 119.171 178.182 119.036 178.182C118.803 178.182 118.604 178.114 118.441 177.979C118.278 177.844 118.196 177.65 118.196 177.398C118.196 177.146 118.285 176.945 118.462 176.796C118.644 176.647 118.877 176.572 119.162 176.572C119.465 176.572 119.703 176.663 119.876 176.845C120.053 177.027 120.142 177.284 120.142 177.615C120.142 177.942 120.058 178.261 119.89 178.574C119.722 178.887 119.514 179.16 119.267 179.393C119.02 179.626 118.775 179.792 118.532 179.89ZM125.056 178.14C124.491 178.14 124.008 178.005 123.607 177.734C123.21 177.459 122.886 177.081 122.634 176.6C122.387 176.115 122.205 175.552 122.088 174.913C121.976 174.274 121.92 173.59 121.92 172.862C121.92 172.134 121.976 171.45 122.088 170.811C122.205 170.167 122.387 169.602 122.634 169.117C122.886 168.627 123.21 168.244 123.607 167.969C124.008 167.689 124.491 167.549 125.056 167.549C125.621 167.549 126.101 167.689 126.498 167.969C126.899 168.244 127.224 168.627 127.471 169.117C127.718 169.602 127.9 170.167 128.017 170.811C128.134 171.45 128.192 172.134 128.192 172.862C128.192 173.59 128.134 174.274 128.017 174.913C127.9 175.552 127.718 176.115 127.471 176.6C127.224 177.081 126.899 177.459 126.498 177.734C126.101 178.005 125.621 178.14 125.056 178.14ZM125.056 177.09C125.495 177.09 125.854 176.929 126.134 176.607C126.419 176.285 126.631 175.809 126.771 175.179C126.911 174.549 126.981 173.777 126.981 172.862C126.981 171.943 126.911 171.168 126.771 170.538C126.631 169.908 126.419 169.432 126.134 169.11C125.854 168.783 125.495 168.62 125.056 168.62C124.622 168.62 124.26 168.783 123.971 169.11C123.686 169.432 123.474 169.908 123.334 170.538C123.194 171.168 123.124 171.943 123.124 172.862C123.124 173.781 123.194 174.556 123.334 175.186C123.474 175.811 123.686 176.285 123.971 176.607C124.26 176.929 124.622 177.09 125.056 177.09ZM133.013 178.14C132.448 178.14 131.965 178.005 131.564 177.734C131.167 177.459 130.843 177.081 130.591 176.6C130.344 176.115 130.162 175.552 130.045 174.913C129.933 174.274 129.877 173.59 129.877 172.862C129.877 172.134 129.933 171.45 130.045 170.811C130.162 170.167 130.344 169.602 130.591 169.117C130.843 168.627 131.167 168.244 131.564 167.969C131.965 167.689 132.448 167.549 133.013 167.549C133.578 167.549 134.058 167.689 134.455 167.969C134.856 168.244 135.181 168.627 135.428 169.117C135.675 169.602 135.857 170.167 135.974 170.811C136.091 171.45 136.149 172.134 136.149 172.862C136.149 173.59 136.091 174.274 135.974 174.913C135.857 175.552 135.675 176.115 135.428 176.6C135.181 177.081 134.856 177.459 134.455 177.734C134.058 178.005 133.578 178.14 133.013 178.14ZM133.013 177.09C133.452 177.09 133.811 176.929 134.091 176.607C134.376 176.285 134.588 175.809 134.728 175.179C134.868 174.549 134.938 173.777 134.938 172.862C134.938 171.943 134.868 171.168 134.728 170.538C134.588 169.908 134.376 169.432 134.091 169.11C133.811 168.783 133.452 168.62 133.013 168.62C132.579 168.62 132.217 168.783 131.928 169.11C131.643 169.432 131.431 169.908 131.291 170.538C131.151 171.168 131.081 171.943 131.081 172.862C131.081 173.781 131.151 174.556 131.291 175.186C131.431 175.811 131.643 176.285 131.928 176.607C132.217 176.929 132.579 177.09 133.013 177.09ZM140.97 178.14C140.405 178.14 139.922 178.005 139.521 177.734C139.124 177.459 138.8 177.081 138.548 176.6C138.301 176.115 138.119 175.552 138.002 174.913C137.89 174.274 137.834 173.59 137.834 172.862C137.834 172.134 137.89 171.45 138.002 170.811C138.119 170.167 138.301 169.602 138.548 169.117C138.8 168.627 139.124 168.244 139.521 167.969C139.922 167.689 140.405 167.549 140.97 167.549C141.535 167.549 142.015 167.689 142.412 167.969C142.813 168.244 143.138 168.627 143.385 169.117C143.632 169.602 143.814 170.167 143.931 170.811C144.048 171.45 144.106 172.134 144.106 172.862C144.106 173.59 144.048 174.274 143.931 174.913C143.814 175.552 143.632 176.115 143.385 176.6C143.138 177.081 142.813 177.459 142.412 177.734C142.015 178.005 141.535 178.14 140.97 178.14ZM140.97 177.09C141.409 177.09 141.768 176.929 142.048 176.607C142.333 176.285 142.545 175.809 142.685 175.179C142.825 174.549 142.895 173.777 142.895 172.862C142.895 171.943 142.825 171.168 142.685 170.538C142.545 169.908 142.333 169.432 142.048 169.11C141.768 168.783 141.409 168.62 140.97 168.62C140.536 168.62 140.174 168.783 139.885 169.11C139.6 169.432 139.388 169.908 139.248 170.538C139.108 171.168 139.038 171.943 139.038 172.862C139.038 173.781 139.108 174.556 139.248 175.186C139.388 175.811 139.6 176.285 139.885 176.607C140.174 176.929 140.536 177.09 140.97 177.09Z" fill="white"/>
<path d="M132.741 204.675H133.574V215H132.741V204.675ZM133.182 213.607C132.734 213.607 132.318 213.56 131.936 213.467C131.558 213.369 131.226 213.229 130.942 213.047C130.662 212.86 130.442 212.632 130.284 212.361C130.13 212.09 130.053 211.78 130.053 211.43C130.053 211.393 130.053 211.355 130.053 211.318C130.053 211.276 130.053 211.241 130.053 211.213H131.25C131.25 211.241 131.25 211.264 131.25 211.283C131.25 211.302 131.25 211.33 131.25 211.367C131.25 211.745 131.425 212.034 131.775 212.235C132.125 212.431 132.603 212.529 133.21 212.529C133.583 212.529 133.917 212.492 134.211 212.417C134.505 212.342 134.736 212.228 134.904 212.074C135.076 211.92 135.163 211.726 135.163 211.493C135.163 211.106 134.981 210.83 134.617 210.667C134.257 210.499 133.718 210.354 133 210.233C132.622 210.168 132.262 210.084 131.922 209.981C131.581 209.874 131.278 209.736 131.012 209.568C130.75 209.4 130.543 209.192 130.389 208.945C130.239 208.693 130.165 208.392 130.165 208.042C130.165 207.589 130.298 207.207 130.564 206.894C130.834 206.577 131.198 206.336 131.656 206.173C132.113 206.005 132.622 205.921 133.182 205.921C133.723 205.921 134.222 206.007 134.68 206.18C135.137 206.353 135.503 206.605 135.779 206.936C136.059 207.263 136.199 207.666 136.199 208.147C136.199 208.166 136.199 208.189 136.199 208.217C136.199 208.24 136.199 208.264 136.199 208.287H135.009C135.009 208.264 135.009 208.245 135.009 208.231C135.009 208.217 135.009 208.201 135.009 208.182C135.009 207.911 134.922 207.69 134.75 207.517C134.577 207.34 134.353 207.209 134.078 207.125C133.802 207.036 133.508 206.992 133.196 206.992C132.902 206.992 132.612 207.025 132.328 207.09C132.043 207.151 131.807 207.253 131.621 207.398C131.434 207.543 131.341 207.741 131.341 207.993C131.341 208.245 131.427 208.448 131.6 208.602C131.777 208.751 132.024 208.875 132.342 208.973C132.664 209.066 133.042 209.153 133.476 209.232C133.863 209.302 134.229 209.391 134.575 209.498C134.92 209.601 135.223 209.734 135.485 209.897C135.751 210.06 135.958 210.268 136.108 210.52C136.262 210.767 136.339 211.071 136.339 211.43C136.339 211.794 136.255 212.111 136.087 212.382C135.923 212.653 135.695 212.879 135.401 213.061C135.111 213.243 134.775 213.381 134.393 213.474C134.015 213.563 133.611 213.607 133.182 213.607ZM140.97 215.14C140.405 215.14 139.922 215.005 139.521 214.734C139.124 214.459 138.8 214.081 138.548 213.6C138.301 213.115 138.119 212.552 138.002 211.913C137.89 211.274 137.834 210.59 137.834 209.862C137.834 209.134 137.89 208.45 138.002 207.811C138.119 207.167 138.301 206.602 138.548 206.117C138.8 205.627 139.124 205.244 139.521 204.969C139.922 204.689 140.405 204.549 140.97 204.549C141.535 204.549 142.015 204.689 142.412 204.969C142.813 205.244 143.138 205.627 143.385 206.117C143.632 206.602 143.814 207.167 143.931 207.811C144.048 208.45 144.106 209.134 144.106 209.862C144.106 210.59 144.048 211.274 143.931 211.913C143.814 212.552 143.632 213.115 143.385 213.6C143.138 214.081 142.813 214.459 142.412 214.734C142.015 215.005 141.535 215.14 140.97 215.14ZM140.97 214.09C141.409 214.09 141.768 213.929 142.048 213.607C142.333 213.285 142.545 212.809 142.685 212.179C142.825 211.549 142.895 210.777 142.895 209.862C142.895 208.943 142.825 208.168 142.685 207.538C142.545 206.908 142.333 206.432 142.048 206.11C141.768 205.783 141.409 205.62 140.97 205.62C140.536 205.62 140.174 205.783 139.885 206.11C139.6 206.432 139.388 206.908 139.248 207.538C139.108 208.168 139.038 208.943 139.038 209.862C139.038 210.781 139.108 211.556 139.248 212.186C139.388 212.811 139.6 213.285 139.885 213.607C140.174 213.929 140.536 214.09 140.97 214.09Z" fill="white"/>
<path d="M154.308 269V258.78H157.374C158.354 258.78 159.128 259.013 159.698 259.48C160.267 259.947 160.552 260.591 160.552 261.412C160.552 261.869 160.449 262.271 160.244 262.616C160.038 262.952 159.758 263.213 159.404 263.4C159.049 263.587 158.643 263.68 158.186 263.68V263.582C158.69 263.573 159.133 263.666 159.516 263.862C159.908 264.058 160.216 264.347 160.44 264.73C160.664 265.113 160.776 265.57 160.776 266.102C160.776 266.69 160.645 267.203 160.384 267.642C160.122 268.081 159.749 268.417 159.264 268.65C158.788 268.883 158.218 269 157.556 269H154.308ZM155.89 267.614H157.444C157.966 267.614 158.382 267.474 158.69 267.194C158.998 266.914 159.152 266.527 159.152 266.032C159.152 265.528 158.998 265.127 158.69 264.828C158.382 264.52 157.966 264.366 157.444 264.366H155.89V267.614ZM155.89 263.022H157.36C157.845 263.022 158.223 262.896 158.494 262.644C158.774 262.383 158.914 262.033 158.914 261.594C158.914 261.146 158.774 260.796 158.494 260.544C158.223 260.292 157.85 260.166 157.374 260.166H155.89V263.022ZM164.956 269.14C164.163 269.14 163.533 268.935 163.066 268.524C162.609 268.104 162.38 267.535 162.38 266.816C162.38 266.069 162.628 265.491 163.122 265.08C163.626 264.669 164.322 264.464 165.208 264.464H167.238V263.778C167.238 263.386 167.112 263.078 166.86 262.854C166.608 262.63 166.258 262.518 165.81 262.518C165.409 262.518 165.073 262.607 164.802 262.784C164.541 262.952 164.387 263.185 164.34 263.484H162.744C162.828 262.775 163.15 262.21 163.71 261.79C164.28 261.37 164.994 261.16 165.852 261.16C166.786 261.16 167.523 261.393 168.064 261.86C168.606 262.327 168.876 262.961 168.876 263.764V269H167.28V267.628H167.014L167.294 267.292C167.294 267.861 167.08 268.314 166.65 268.65C166.221 268.977 165.656 269.14 164.956 269.14ZM165.474 267.908C165.988 267.908 166.408 267.777 166.734 267.516C167.07 267.245 167.238 266.905 167.238 266.494V265.514H165.236C164.863 265.514 164.564 265.621 164.34 265.836C164.116 266.041 164.004 266.321 164.004 266.676C164.004 267.059 164.135 267.362 164.396 267.586C164.658 267.801 165.017 267.908 165.474 267.908ZM171.083 269V261.3H172.693V262.77H173.113L172.693 263.148C172.693 262.523 172.875 262.037 173.239 261.692C173.612 261.337 174.116 261.16 174.751 261.16C175.516 261.16 176.128 261.407 176.585 261.902C177.042 262.397 177.271 263.069 177.271 263.918V269H175.633V264.086C175.633 263.601 175.502 263.227 175.241 262.966C174.989 262.705 174.639 262.574 174.191 262.574C173.734 262.574 173.374 262.714 173.113 262.994C172.852 263.265 172.721 263.652 172.721 264.156V269H171.083ZM181.955 269.14C181.181 269.14 180.56 268.879 180.093 268.356C179.627 267.824 179.393 267.11 179.393 266.214V264.086C179.393 263.19 179.627 262.481 180.093 261.958C180.56 261.426 181.181 261.16 181.955 261.16C182.59 261.16 183.094 261.337 183.467 261.692C183.841 262.047 184.027 262.532 184.027 263.148L183.677 262.77H184.041L183.999 260.964V258.78H185.637V269H184.027V267.53H183.677L184.027 267.152C184.027 267.768 183.841 268.253 183.467 268.608C183.094 268.963 182.59 269.14 181.955 269.14ZM182.529 267.726C182.987 267.726 183.346 267.586 183.607 267.306C183.869 267.026 183.999 266.639 183.999 266.144V264.156C183.999 263.661 183.869 263.274 183.607 262.994C183.346 262.714 182.987 262.574 182.529 262.574C182.053 262.574 181.68 262.714 181.409 262.994C181.148 263.265 181.017 263.652 181.017 264.156V266.144C181.017 266.648 181.148 267.04 181.409 267.32C181.68 267.591 182.053 267.726 182.529 267.726ZM188.264 269L187.088 261.3H188.46L189.132 266.2C189.169 266.452 189.202 266.732 189.23 267.04C189.267 267.348 189.295 267.6 189.314 267.796C189.333 267.6 189.365 267.348 189.412 267.04C189.459 266.732 189.501 266.452 189.538 266.2L190.294 261.3H191.61L192.366 266.2C192.403 266.452 192.445 266.732 192.492 267.04C192.539 267.348 192.571 267.605 192.59 267.81C192.609 267.605 192.637 267.348 192.674 267.04C192.721 266.732 192.763 266.452 192.8 266.2L193.5 261.3H194.816L193.598 269H191.89L191.176 264.114C191.139 263.853 191.097 263.568 191.05 263.26C191.003 262.952 190.971 262.705 190.952 262.518C190.924 262.705 190.887 262.952 190.84 263.26C190.803 263.568 190.765 263.853 190.728 264.114L189.972 269H188.264ZM196.238 269V267.516H198.94V262.77H196.588V261.3H200.508V267.516H202.944V269H196.238ZM199.584 259.984C199.239 259.984 198.968 259.9 198.772 259.732C198.576 259.555 198.478 259.317 198.478 259.018C198.478 258.71 198.576 258.467 198.772 258.29C198.968 258.113 199.239 258.024 199.584 258.024C199.93 258.024 200.2 258.113 200.396 258.29C200.592 258.467 200.69 258.71 200.69 259.018C200.69 259.317 200.592 259.555 200.396 259.732C200.2 259.9 199.93 259.984 199.584 259.984ZM207.139 269.14C206.364 269.14 205.744 268.879 205.277 268.356C204.81 267.824 204.577 267.11 204.577 266.214V264.086C204.577 263.19 204.81 262.481 205.277 261.958C205.744 261.426 206.364 261.16 207.139 261.16C207.774 261.16 208.278 261.337 208.651 261.692C209.024 262.047 209.211 262.532 209.211 263.148L208.861 262.77H209.225L209.183 260.964V258.78H210.821V269H209.211V267.53H208.861L209.211 267.152C209.211 267.768 209.024 268.253 208.651 268.608C208.278 268.963 207.774 269.14 207.139 269.14ZM207.713 267.726C208.17 267.726 208.53 267.586 208.791 267.306C209.052 267.026 209.183 266.639 209.183 266.144V264.156C209.183 263.661 209.052 263.274 208.791 262.994C208.53 262.714 208.17 262.574 207.713 262.574C207.237 262.574 206.864 262.714 206.593 262.994C206.332 263.265 206.201 263.652 206.201 264.156V266.144C206.201 266.648 206.332 267.04 206.593 267.32C206.864 267.591 207.237 267.726 207.713 267.726ZM216.976 269C216.257 269 215.697 268.804 215.296 268.412C214.894 268.011 214.694 267.46 214.694 266.76V262.77H212.58V261.3H214.694V259.13H216.318V261.3H219.314V262.77H216.318V266.76C216.318 267.273 216.57 267.53 217.074 267.53H219.174V269H216.976ZM221.45 269V258.78H223.088V261.3L223.06 262.77H223.48L223.06 263.148C223.06 262.523 223.242 262.037 223.606 261.692C223.979 261.337 224.483 261.16 225.118 261.16C225.883 261.16 226.495 261.407 226.952 261.902C227.409 262.397 227.638 263.069 227.638 263.918V269H226V264.086C226 263.601 225.869 263.227 225.608 262.966C225.356 262.695 225.006 262.56 224.558 262.56C224.101 262.56 223.741 262.7 223.48 262.98C223.219 263.26 223.088 263.652 223.088 264.156V269H221.45ZM241.305 269.14C240.353 269.14 239.597 268.869 239.037 268.328C238.486 267.787 238.211 267.049 238.211 266.116V261.3H239.849V266.102C239.849 266.615 239.975 267.012 240.227 267.292C240.488 267.572 240.848 267.712 241.305 267.712C241.772 267.712 242.136 267.572 242.397 267.292C242.658 267.012 242.789 266.615 242.789 266.102V261.3H244.427V266.116C244.427 267.049 244.142 267.787 243.573 268.328C243.013 268.869 242.257 269.14 241.305 269.14ZM249.434 269.126C248.864 269.126 248.365 269.037 247.936 268.86C247.516 268.673 247.18 268.421 246.928 268.104C246.685 267.777 246.55 267.395 246.522 266.956H248.16C248.188 267.208 248.314 267.409 248.538 267.558C248.771 267.707 249.07 267.782 249.434 267.782H250.036C250.484 267.782 250.82 267.693 251.044 267.516C251.268 267.339 251.38 267.101 251.38 266.802C251.38 266.522 251.277 266.303 251.072 266.144C250.876 265.976 250.577 265.864 250.176 265.808L249.196 265.668C248.346 265.537 247.721 265.304 247.32 264.968C246.928 264.623 246.732 264.109 246.732 263.428C246.732 262.709 246.965 262.154 247.432 261.762C247.908 261.37 248.608 261.174 249.532 261.174H250.064C250.894 261.174 251.557 261.361 252.052 261.734C252.546 262.107 252.822 262.611 252.878 263.246H251.24C251.212 263.031 251.095 262.859 250.89 262.728C250.684 262.588 250.409 262.518 250.064 262.518H249.532C249.112 262.518 248.804 262.597 248.608 262.756C248.421 262.905 248.328 263.129 248.328 263.428C248.328 263.699 248.412 263.904 248.58 264.044C248.748 264.175 249.014 264.268 249.378 264.324L250.386 264.464C251.272 264.595 251.926 264.842 252.346 265.206C252.766 265.561 252.976 266.083 252.976 266.774C252.976 267.521 252.728 268.099 252.234 268.51C251.748 268.921 251.016 269.126 250.036 269.126H249.434ZM258.108 269.14C257.474 269.14 256.918 269.019 256.442 268.776C255.966 268.524 255.598 268.174 255.336 267.726C255.075 267.269 254.944 266.741 254.944 266.144V264.156C254.944 263.559 255.075 263.036 255.336 262.588C255.598 262.131 255.966 261.781 256.442 261.538C256.918 261.286 257.474 261.16 258.108 261.16C258.752 261.16 259.308 261.286 259.774 261.538C260.25 261.781 260.619 262.131 260.88 262.588C261.142 263.036 261.272 263.559 261.272 264.156V265.542H256.512V266.144C256.512 266.695 256.648 267.115 256.918 267.404C257.198 267.693 257.6 267.838 258.122 267.838C258.542 267.838 258.878 267.763 259.13 267.614C259.392 267.465 259.555 267.255 259.62 266.984H261.23C261.109 267.637 260.764 268.16 260.194 268.552C259.625 268.944 258.93 269.14 258.108 269.14ZM259.704 264.59V264.156C259.704 263.605 259.569 263.185 259.298 262.896C259.037 262.597 258.64 262.448 258.108 262.448C257.595 262.448 257.198 262.597 256.918 262.896C256.648 263.195 256.512 263.615 256.512 264.156V264.478L259.816 264.464L259.704 264.59ZM265.901 269.14C265.126 269.14 264.505 268.879 264.039 268.356C263.572 267.824 263.339 267.11 263.339 266.214V264.086C263.339 263.19 263.572 262.481 264.039 261.958C264.505 261.426 265.126 261.16 265.901 261.16C266.535 261.16 267.039 261.337 267.413 261.692C267.786 262.047 267.973 262.532 267.973 263.148L267.623 262.77H267.987L267.945 260.964V258.78H269.583V269H267.973V267.53H267.623L267.973 267.152C267.973 267.768 267.786 268.253 267.413 268.608C267.039 268.963 266.535 269.14 265.901 269.14ZM266.475 267.726C266.932 267.726 267.291 267.586 267.553 267.306C267.814 267.026 267.945 266.639 267.945 266.144V264.156C267.945 263.661 267.814 263.274 267.553 262.994C267.291 262.714 266.932 262.574 266.475 262.574C265.999 262.574 265.625 262.714 265.355 262.994C265.093 263.265 264.963 263.652 264.963 264.156V266.144C264.963 266.648 265.093 267.04 265.355 267.32C265.625 267.591 265.999 267.726 266.475 267.726ZM285.882 270.68C284.482 270.316 283.399 269.663 282.634 268.72C281.878 267.768 281.5 266.601 281.5 265.22V262.7C281.5 261.795 281.672 260.978 282.018 260.25C282.372 259.513 282.876 258.887 283.53 258.374C284.192 257.851 284.976 257.473 285.882 257.24V258.836C285.322 258.967 284.832 259.214 284.412 259.578C284.001 259.933 283.684 260.376 283.46 260.908C283.236 261.44 283.124 262.037 283.124 262.7V265.22C283.124 265.873 283.236 266.466 283.46 266.998C283.684 267.521 284.001 267.959 284.412 268.314C284.832 268.669 285.322 268.911 285.882 269.042V270.68ZM288.256 269V261.3H289.614V262.308H289.894L289.67 262.588C289.67 262.149 289.787 261.804 290.02 261.552C290.263 261.291 290.576 261.16 290.958 261.16C291.378 261.16 291.7 261.328 291.924 261.664C292.158 261.991 292.274 262.439 292.274 263.008L291.952 262.308H292.456L292.246 262.588C292.246 262.149 292.368 261.804 292.61 261.552C292.853 261.291 293.175 261.16 293.576 261.16C294.052 261.16 294.426 261.342 294.696 261.706C294.976 262.061 295.116 262.537 295.116 263.134V269H293.674V263.19C293.674 262.919 293.614 262.709 293.492 262.56C293.38 262.411 293.212 262.336 292.988 262.336C292.764 262.336 292.592 262.411 292.47 262.56C292.349 262.7 292.288 262.905 292.288 263.176V269H291.084V263.19C291.084 262.91 291.024 262.7 290.902 262.56C290.781 262.411 290.608 262.336 290.384 262.336C290.16 262.336 289.992 262.411 289.88 262.56C289.768 262.7 289.712 262.905 289.712 263.176V269H288.256ZM296.973 269V267.516H299.675V262.77H297.323V261.3H301.243V267.516H303.679V269H296.973ZM300.319 259.984C299.974 259.984 299.703 259.9 299.507 259.732C299.311 259.555 299.213 259.317 299.213 259.018C299.213 258.71 299.311 258.467 299.507 258.29C299.703 258.113 299.974 258.024 300.319 258.024C300.664 258.024 300.935 258.113 301.131 258.29C301.327 258.467 301.425 258.71 301.425 259.018C301.425 259.317 301.327 259.555 301.131 259.732C300.935 259.9 300.664 259.984 300.319 259.984ZM309.623 269C309.129 269 308.695 268.902 308.321 268.706C307.957 268.501 307.673 268.216 307.467 267.852C307.262 267.488 307.159 267.063 307.159 266.578V260.25H304.667V258.78H308.797V266.578C308.797 266.867 308.877 267.101 309.035 267.278C309.203 267.446 309.427 267.53 309.707 267.53H312.073V269H309.623ZM318.018 269C317.523 269 317.089 268.902 316.716 268.706C316.352 268.501 316.067 268.216 315.862 267.852C315.657 267.488 315.554 267.063 315.554 266.578V260.25H313.062V258.78H317.192V266.578C317.192 266.867 317.271 267.101 317.43 267.278C317.598 267.446 317.822 267.53 318.102 267.53H320.468V269H318.018ZM322.156 269V267.516H324.858V262.77H322.506V261.3H326.426V267.516H328.862V269H322.156ZM325.502 259.984C325.157 259.984 324.886 259.9 324.69 259.732C324.494 259.555 324.396 259.317 324.396 259.018C324.396 258.71 324.494 258.467 324.69 258.29C324.886 258.113 325.157 258.024 325.502 258.024C325.848 258.024 326.118 258.113 326.314 258.29C326.51 258.467 326.608 258.71 326.608 259.018C326.608 259.317 326.51 259.555 326.314 259.732C326.118 259.9 325.848 259.984 325.502 259.984ZM333.659 269.126C333.015 269.126 332.455 269.005 331.979 268.762C331.512 268.519 331.148 268.174 330.887 267.726C330.626 267.269 330.495 266.732 330.495 266.116V264.184C330.495 263.568 330.626 263.036 330.887 262.588C331.148 262.131 331.512 261.781 331.979 261.538C332.455 261.295 333.015 261.174 333.659 261.174C334.312 261.174 334.872 261.295 335.339 261.538C335.806 261.781 336.17 262.131 336.431 262.588C336.692 263.036 336.823 263.563 336.823 264.17V266.116C336.823 266.732 336.692 267.269 336.431 267.726C336.17 268.174 335.806 268.519 335.339 268.762C334.872 269.005 334.312 269.126 333.659 269.126ZM333.659 267.698C334.144 267.698 334.522 267.563 334.793 267.292C335.064 267.021 335.199 266.629 335.199 266.116V264.184C335.199 263.661 335.064 263.269 334.793 263.008C334.522 262.737 334.144 262.602 333.659 262.602C333.183 262.602 332.805 262.737 332.525 263.008C332.254 263.269 332.119 263.661 332.119 264.184V266.116C332.119 266.629 332.254 267.021 332.525 267.292C332.805 267.563 333.183 267.698 333.659 267.698ZM338.974 269V261.3H340.584V262.77H341.004L340.584 263.148C340.584 262.523 340.766 262.037 341.13 261.692C341.503 261.337 342.007 261.16 342.642 261.16C343.407 261.16 344.018 261.407 344.476 261.902C344.933 262.397 345.162 263.069 345.162 263.918V269H343.524V264.086C343.524 263.601 343.393 263.227 343.132 262.966C342.88 262.705 342.53 262.574 342.082 262.574C341.624 262.574 341.265 262.714 341.004 262.994C340.742 263.265 340.612 263.652 340.612 264.156V269H338.974ZM358.899 269.14C358.255 269.14 357.69 269.019 357.205 268.776C356.729 268.533 356.36 268.188 356.099 267.74C355.837 267.283 355.707 266.751 355.707 266.144V261.636C355.707 261.02 355.837 260.488 356.099 260.04C356.36 259.592 356.729 259.247 357.205 259.004C357.69 258.761 358.255 258.64 358.899 258.64C359.552 258.64 360.112 258.766 360.579 259.018C361.055 259.261 361.423 259.606 361.685 260.054C361.946 260.493 362.077 261.02 362.077 261.636H360.453C360.453 261.132 360.317 260.749 360.047 260.488C359.776 260.217 359.393 260.082 358.899 260.082C358.404 260.082 358.017 260.217 357.737 260.488C357.466 260.749 357.331 261.132 357.331 261.636V266.144C357.331 266.639 357.466 267.026 357.737 267.306C358.017 267.577 358.404 267.712 358.899 267.712C359.393 267.712 359.776 267.577 360.047 267.306C360.317 267.026 360.453 266.634 360.453 266.13V265.052H358.619V263.624H362.077V266.144C362.077 266.751 361.946 267.278 361.685 267.726C361.423 268.174 361.055 268.524 360.579 268.776C360.112 269.019 359.552 269.14 358.899 269.14ZM364.171 269V258.78H367.237C368.217 258.78 368.992 259.013 369.561 259.48C370.13 259.947 370.415 260.591 370.415 261.412C370.415 261.869 370.312 262.271 370.107 262.616C369.902 262.952 369.622 263.213 369.267 263.4C368.912 263.587 368.506 263.68 368.049 263.68V263.582C368.553 263.573 368.996 263.666 369.379 263.862C369.771 264.058 370.079 264.347 370.303 264.73C370.527 265.113 370.639 265.57 370.639 266.102C370.639 266.69 370.508 267.203 370.247 267.642C369.986 268.081 369.612 268.417 369.127 268.65C368.651 268.883 368.082 269 367.419 269H364.171ZM365.753 267.614H367.307C367.83 267.614 368.245 267.474 368.553 267.194C368.861 266.914 369.015 266.527 369.015 266.032C369.015 265.528 368.861 265.127 368.553 264.828C368.245 264.52 367.83 264.366 367.307 264.366H365.753V267.614ZM365.753 263.022H367.223C367.708 263.022 368.086 262.896 368.357 262.644C368.637 262.383 368.777 262.033 368.777 261.594C368.777 261.146 368.637 260.796 368.357 260.544C368.086 260.292 367.713 260.166 367.237 260.166H365.753V263.022ZM373.042 270.68V269.042C373.611 268.911 374.101 268.669 374.512 268.314C374.922 267.959 375.24 267.521 375.464 266.998C375.688 266.466 375.8 265.873 375.8 265.22V262.7C375.8 262.037 375.688 261.44 375.464 260.908C375.24 260.376 374.922 259.933 374.512 259.578C374.101 259.214 373.611 258.967 373.042 258.836V257.24C373.956 257.473 374.74 257.851 375.394 258.374C376.047 258.887 376.546 259.513 376.892 260.25C377.246 260.978 377.424 261.795 377.424 262.7V265.22C377.424 266.601 377.041 267.768 376.276 268.72C375.52 269.663 374.442 270.316 373.042 270.68Z" fill="white"/>
<path d="M505 169C505 153.536 517.536 141 533 141C548.464 141 561 153.536 561 169C561 184.464 548.464 197 533 197C517.536 197 505 184.464 505 169Z" fill="#0069FF"/>
<path fill-rule="evenodd" clip-rule="evenodd" d="M533.022 185V178.803C539.605 178.803 544.667 172.303 542.155 165.384C541.242 162.837 539.187 160.785 536.637 159.872C529.711 157.363 523.203 162.457 523.203 168.996H517C517 158.542 527.123 150.369 538.083 153.79C542.878 155.273 546.684 159.112 548.206 163.902C551.631 174.888 543.487 185 533.022 185Z" fill="white"/>
<path fill-rule="evenodd" clip-rule="evenodd" d="M533.021 178.842H526.855V172.684H533.021V178.842Z" fill="white"/>
<path fill-rule="evenodd" clip-rule="evenodd" d="M526.855 183.595H522.098V178.844H526.855V183.595Z" fill="white"/>
<path fill-rule="evenodd" clip-rule="evenodd" d="M522.101 178.844H518.105V174.891H522.063V178.844H522.101Z" fill="white"/>
</g>
</g>
<defs>
<filter id="filter0_d_606_27770" x="38" y="21" width="564" height="290" filterUnits="userSpaceOnUse" color-interpolation-filters="sRGB">
<feFlood flood-opacity="0" result="BackgroundImageFix"/>
<feColorMatrix in="SourceAlpha" type="matrix" values="0 0 0 0 0 0 0 0 0 0 0 0 0 0 0 0 0 0 127 0" result="hardAlpha"/>
<feMorphology radius="6" operator="erode" in="SourceAlpha" result="effect1_dropShadow_606_27770"/>
<feOffset dy="6"/>
<feGaussianBlur stdDeviation="10"/>
<feColorMatrix type="matrix" values="0 0 0 0 0.0431373 0 0 0 0 0.168627 0 0 0 0 0.619608 0 0 0 0.35 0"/>
<feBlend mode="normal" in2="BackgroundImageFix" result="effect1_dropShadow_606_27770"/>
<feBlend mode="normal" in="SourceGraphic" in2="effect1_dropShadow_606_27770" result="shape"/>
</filter>
<clipPath id="clip0_606_27770">
<rect width="640" height="320" rx="24" fill="white"/>
</clipPath>
</defs>
</svg>
